<svg width="484" height="200" fill="none" xmlns="http://www.w3.org/2000/svg"><path d="M266.95 73.454l-1.882 11.364h-33.665l1.883-11.364h33.664zM231.865 128l9.766-58.487c.639-3.954 1.941-7.233 3.906-9.837 1.989-2.604 4.439-4.557 7.351-5.86 2.935-1.301 6.108-1.952 9.517-1.952 2.32 0 4.415.177 6.285.532 1.894.355 3.267.675 4.12.96l-4.51 11.363a17.781 17.781 0 00-2.095-.533 13.39 13.39 0 00-2.628-.249c-2.202 0-3.824.521-4.865 1.563-1.018 1.018-1.705 2.45-2.06 4.297L246.957 128h-15.092zm57.963 1.065c-5.563 0-10.168-1.183-13.813-3.551-3.646-2.391-6.215-5.705-7.706-9.943-1.468-4.261-1.74-9.221-.817-14.879.899-5.587 2.77-10.476 5.611-14.666 2.841-4.19 6.451-7.446 10.831-9.766 4.379-2.344 9.315-3.516 14.808-3.516 5.54 0 10.132 1.196 13.778 3.587 3.646 2.367 6.215 5.682 7.706 9.943 1.492 4.261 1.776 9.221.852 14.879-.923 5.564-2.817 10.441-5.681 14.631-2.865 4.19-6.475 7.457-10.831 9.801-4.356 2.32-9.269 3.48-14.738 3.48zm1.492-11.718c2.557 0 4.818-.722 6.783-2.167 1.988-1.467 3.634-3.456 4.936-5.966 1.325-2.533 2.249-5.397 2.77-8.593.52-3.149.556-5.942.106-8.38-.45-2.463-1.397-4.404-2.841-5.825-1.42-1.42-3.373-2.13-5.859-2.13-2.557 0-4.83.733-6.818 2.201-1.989 1.444-3.634 3.433-4.936 5.966-1.303 2.533-2.214 5.41-2.735 8.629-.497 3.125-.532 5.919-.106 8.381.426 2.439 1.361 4.368 2.805 5.788 1.444 1.397 3.409 2.096 5.895 2.096zm39.364 31.108c-1.941 0-3.717-.154-5.326-.462-1.61-.284-2.936-.651-3.978-1.101l5.327-11.293c1.681.545 3.208.829 4.581.853a6.81 6.81 0 003.835-1.066c1.16-.734 2.226-1.941 3.196-3.622l1.35-2.308-10.228-56.001h15.341l4.617 40.127h.568l18.075-40.127h16.584l-31.214 60.44c-1.539 2.959-3.362 5.528-5.469 7.706-2.084 2.178-4.557 3.859-7.422 5.042-2.841 1.208-6.12 1.812-9.837 1.812zm75.551-19.39c-5.587 0-10.216-1.136-13.885-3.409-3.67-2.296-6.25-5.54-7.742-9.73-1.467-4.214-1.716-9.197-.745-14.95.947-5.61 2.852-10.535 5.717-14.773 2.888-4.238 6.51-7.54 10.866-9.907 4.356-2.368 9.21-3.552 14.56-3.552 3.599 0 6.854.58 9.766 1.74 2.935 1.137 5.374 2.865 7.315 5.185 1.941 2.296 3.267 5.173 3.977 8.63.734 3.456.722 7.504-.035 12.144l-.675 4.155h-46.023l1.456-9.375h31.818c.356-2.178.214-4.108-.426-5.788-.639-1.681-1.704-2.995-3.196-3.942-1.491-.97-3.326-1.456-5.504-1.456a12.57 12.57 0 00-6.25 1.633 15.538 15.538 0 00-4.901 4.297c-1.302 1.752-2.142 3.658-2.521 5.718l-1.669 9.304c-.473 2.864-.379 5.243.284 7.137.687 1.894 1.87 3.315 3.551 4.262 1.681.923 3.812 1.385 6.392 1.385 1.681 0 3.256-.237 4.723-.711 1.492-.473 2.818-1.171 3.978-2.095 1.16-.947 2.107-2.119 2.841-3.515l13.814.923a23.887 23.887 0 01-5.824 8.807c-2.605 2.486-5.741 4.427-9.411 5.824-3.646 1.373-7.729 2.059-12.251 2.059zM441.382 128l9.091-54.546h14.666l-1.598 9.518h.568c1.563-3.386 3.658-5.943 6.286-7.67 2.651-1.753 5.504-2.629 8.558-2.629.758 0 1.551.048 2.379.142.853.071 1.61.19 2.273.356l-2.273 13.458c-.662-.237-1.609-.426-2.841-.568a25.36 25.36 0 00-3.444-.249c-2.202 0-4.25.486-6.144 1.457a13.638 13.638 0 00-4.794 3.977c-1.278 1.704-2.118 3.67-2.521 5.895L456.51 128h-15.128z" fill="#0477BF"/><path d="M87 0l86.603 50v100L87 200 .397 150V50L87 0z" fill="#E6FCFF"/><path opacity=".8" fill-rule="evenodd" clip-rule="evenodd" d="M43.5 74.885L.397 50v49.77L43.5 74.885zM.397 100.23L43.301 125 .397 149.771v-49.542z" fill="#0B4D7F"/><path opacity=".8" fill-rule="evenodd" clip-rule="evenodd" d="M86.603 150l86.602-50-86.603-50L0 100l86.603 50z" fill="#0477BF"/><path opacity=".8" fill-rule="evenodd" clip-rule="evenodd" d="M87 100l86.603-50L87 0 .397 50 87 100z" fill="#3DE0F2"/></svg>