<svg width="484" height="200" viewBox="0 0 484 200" fill="none" xmlns="http://www.w3.org/2000/svg">
<path d="M266.95 73.4545L265.068 84.8182H231.403L233.286 73.4545H266.95ZM231.865 128L241.631 69.5128C242.27 65.5592 243.572 62.2803 245.537 59.6761C247.526 57.072 249.976 55.1188 252.888 53.8168C255.823 52.5147 258.996 51.8636 262.405 51.8636C264.725 51.8636 266.82 52.0412 268.69 52.3963C270.584 52.7514 271.957 53.071 272.81 53.3551L268.3 64.7188C267.732 64.5294 267.033 64.3518 266.205 64.1861C265.376 64.0204 264.5 63.9375 263.577 63.9375C261.375 63.9375 259.753 64.4583 258.712 65.5C257.694 66.518 257.007 67.9503 256.652 69.7969L246.957 128H231.865ZM289.828 129.065C284.265 129.065 279.66 127.882 276.015 125.514C272.369 123.123 269.8 119.809 268.309 115.571C266.841 111.31 266.569 106.35 267.492 100.692C268.391 95.1046 270.262 90.2159 273.103 86.0256C275.944 81.8352 279.554 78.58 283.934 76.2599C288.313 73.9162 293.249 72.7443 298.742 72.7443C304.282 72.7443 308.874 73.9399 312.52 76.331C316.166 78.6984 318.735 82.0128 320.226 86.2741C321.718 90.5355 322.002 95.4953 321.078 101.153C320.155 106.717 318.261 111.594 315.397 115.784C312.532 119.974 308.922 123.241 304.566 125.585C300.21 127.905 295.297 129.065 289.828 129.065ZM291.32 117.347C293.877 117.347 296.138 116.625 298.103 115.18C300.091 113.713 301.737 111.724 303.039 109.214C304.364 106.681 305.288 103.817 305.809 100.621C306.329 97.4721 306.365 94.6785 305.915 92.2401C305.465 89.7779 304.518 87.8366 303.074 86.4162C301.654 84.9957 299.701 84.2855 297.215 84.2855C294.658 84.2855 292.385 85.0194 290.397 86.4872C288.408 87.9313 286.763 89.92 285.461 92.4531C284.158 94.9863 283.247 97.8627 282.726 101.082C282.229 104.207 282.194 107.001 282.62 109.463C283.046 111.902 283.981 113.831 285.425 115.251C286.869 116.648 288.834 117.347 291.32 117.347ZM330.684 148.455C328.743 148.455 326.967 148.301 325.358 147.993C323.748 147.709 322.422 147.342 321.38 146.892L326.707 135.599C328.388 136.144 329.915 136.428 331.288 136.452C332.685 136.475 333.963 136.12 335.123 135.386C336.283 134.652 337.349 133.445 338.319 131.764L339.669 129.456L329.441 73.4545H344.782L349.399 113.582H349.967L368.042 73.4545H384.626L353.412 133.895C351.873 136.854 350.05 139.423 347.943 141.601C345.859 143.779 343.386 145.46 340.521 146.643C337.68 147.851 334.401 148.455 330.684 148.455ZM406.235 129.065C400.648 129.065 396.019 127.929 392.35 125.656C388.68 123.36 386.1 120.116 384.608 115.926C383.141 111.712 382.892 106.729 383.863 100.976C384.81 95.3651 386.715 90.4408 389.58 86.2031C392.468 81.9654 396.09 78.6629 400.446 76.2955C404.802 73.928 409.656 72.7443 415.006 72.7443C418.605 72.7443 421.86 73.3243 424.772 74.4844C427.707 75.6207 430.146 77.349 432.087 79.669C434.028 81.9654 435.354 84.8419 436.064 88.2983C436.798 91.7547 436.786 95.803 436.029 100.443L435.354 104.598H389.331L390.787 95.223H422.605C422.961 93.045 422.819 91.1155 422.179 89.4347C421.54 87.7538 420.475 86.4399 418.983 85.4929C417.492 84.5223 415.657 84.0369 413.479 84.0369C411.254 84.0369 409.17 84.5814 407.229 85.6705C405.288 86.7595 403.654 88.1918 402.328 89.9673C401.026 91.7192 400.186 93.625 399.807 95.6847L398.138 104.989C397.665 107.853 397.759 110.232 398.422 112.126C399.109 114.02 400.292 115.441 401.973 116.388C403.654 117.311 405.785 117.773 408.365 117.773C410.046 117.773 411.621 117.536 413.088 117.062C414.58 116.589 415.906 115.891 417.066 114.967C418.226 114.02 419.173 112.848 419.907 111.452L433.721 112.375C432.442 115.737 430.501 118.672 427.897 121.182C425.292 123.668 422.156 125.609 418.486 127.006C414.84 128.379 410.757 129.065 406.235 129.065ZM441.382 128L450.473 73.4545H465.139L463.541 82.9716H464.109C465.672 79.5862 467.767 77.0294 470.395 75.3011C473.046 73.5492 475.899 72.6733 478.953 72.6733C479.711 72.6733 480.504 72.7206 481.332 72.8153C482.185 72.8864 482.942 73.0047 483.605 73.1705L481.332 86.6293C480.67 86.3925 479.723 86.2031 478.491 86.0611C477.284 85.8954 476.136 85.8125 475.047 85.8125C472.845 85.8125 470.797 86.2978 468.903 87.2685C467.009 88.2154 465.411 89.5412 464.109 91.2457C462.831 92.9503 461.991 94.9152 461.588 97.1406L456.51 128H441.382Z" fill="#0477BF"/>
<path d="M87 0L173.603 50V150L87 200L0.397461 150V50L87 0Z" fill="#E6FCFF"/>
<path opacity="0.8" fill-rule="evenodd" clip-rule="evenodd" d="M43.5 74.8853L0.397461 50V99.7705L43.5 74.8853ZM0.397461 100.229L43.3013 125L0.397461 149.771V100.229Z" fill="#0B4D7F"/>
<path opacity="0.8" fill-rule="evenodd" clip-rule="evenodd" d="M86.6025 150L173.205 100L86.6025 50L0 100L86.6025 150Z" fill="#0477BF"/>
<path opacity="0.8" fill-rule="evenodd" clip-rule="evenodd" d="M87 100L173.603 50L87 0L0.397461 50L87 100Z" fill="#3DE0F2"/>
</svg>
