<svg width="400" height="328" viewBox="0 0 400 328" fill="none" xmlns="http://www.w3.org/2000/svg">
<path d="M198.301 110.623C148.62 110.623 103.481 116.603 70.063 126.349V209.597C103.481 219.343 148.62 225.323 198.301 225.323C255.164 225.323 306.07 217.49 340.265 205.143V130.805C306.07 118.457 255.164 110.623 198.301 110.623Z" fill="#8F1E1C"/>
<path d="M342.486 185.971C341.031 181.942 340.739 176.844 341.973 171.928C344.181 163.127 350.435 158.249 355.943 161.032C357.308 161.723 358.499 162.82 359.485 164.213C359.576 164.213 359.666 164.213 359.755 164.219C359.755 164.219 376.57 184.288 361.006 208.056C360.668 209.405 332.12 242.716 325.511 243.776C321.186 244.47 331.132 209.766 342.486 185.971Z" fill="#8F1E1C"/>
<path d="M66.6081 182.033C68.6085 178.394 69.3098 173.422 68.1997 168.269C66.2122 159.042 59.1755 152.733 52.4829 154.179C50.823 154.537 49.3408 155.34 48.0798 156.483C47.9734 156.461 47.867 156.441 47.7609 156.425C47.7609 156.425 26.5148 172.279 43.2103 199.476C43.5141 200.89 74.8579 240.605 82.5801 243.222C87.6342 244.935 78.3352 208.258 66.6081 182.033Z" fill="#8F1E1C"/>
<path d="M36.7868 184.317L36.7894 184.323C36.8593 184.378 36.9242 184.427 36.7868 184.317Z" fill="#E33A25"/>
<path d="M374.83 155.914C374.498 154.756 374.168 153.599 373.826 152.452L385.406 135.654C386.588 133.945 386.829 131.725 386.059 129.776C385.289 127.837 383.61 126.447 381.621 126.107L362.037 122.779C361.28 121.229 360.484 119.702 359.686 118.188L367.913 99.3299C368.759 97.4076 368.581 95.175 367.459 93.4318C366.341 91.6799 364.443 90.6566 362.421 90.7363L342.547 91.4592C341.518 90.1177 340.472 88.7883 339.406 87.4834L343.973 67.27C344.435 65.2169 343.852 63.0686 342.424 61.5774C341.005 60.0916 338.941 59.4767 336.98 59.9589L317.622 64.7234C316.368 63.6143 315.093 62.5191 313.805 61.4459L314.502 40.6944C314.577 38.5937 313.599 36.5977 311.919 35.4323C310.241 34.2593 308.11 34.082 306.274 34.9538L288.215 43.5497C286.761 42.7146 285.299 41.887 283.821 41.087L280.629 20.6374C280.306 18.5658 278.974 16.8064 277.11 16.0026C275.251 15.1946 273.121 15.4554 271.489 16.6858L255.389 28.781C253.803 28.2534 252.211 27.7482 250.598 27.2653L243.659 7.87299C242.953 5.897 241.326 4.44514 239.342 4.03702C237.365 3.63229 235.33 4.31779 233.959 5.85165L220.406 21.0323C218.768 20.8434 217.128 20.6711 215.484 20.529L205.02 2.87651C203.96 1.08833 202.088 0 200.07 0C198.057 0 196.181 1.08833 195.129 2.87651L184.662 20.529C183.017 20.6711 181.37 20.8434 179.734 21.0323L166.181 5.85165C164.809 4.31779 162.766 3.63229 160.796 4.03702C158.813 4.44967 157.183 5.897 156.481 7.87299L149.535 27.2653C147.928 27.7482 146.334 28.258 144.745 28.781L128.65 16.6858C127.014 15.4516 124.884 15.1912 123.021 16.0026C121.164 16.8064 119.827 18.5658 119.506 20.6374L116.312 41.087C114.835 41.887 113.373 42.7097 111.914 43.5497L93.8573 34.9538C92.0237 34.079 89.8833 34.2593 88.2132 35.4323C86.5355 36.5977 85.5554 38.5937 85.6316 40.6944L86.3242 61.4459C85.039 62.5191 83.7675 63.6143 82.5076 64.7234L63.1535 59.9589C61.1868 59.4809 59.1264 60.0916 57.7031 61.5774C56.2708 63.0686 55.6907 65.2169 56.1508 67.27L60.7097 87.4834C59.6522 88.7936 58.6055 90.1177 57.5797 91.4592L37.7063 90.7363C35.7002 90.677 33.7859 91.6799 32.6653 93.4318C31.5425 95.175 31.3727 97.4076 32.2083 99.3299L40.4415 118.188C39.6417 119.702 38.8472 121.229 38.0829 122.779L18.5009 126.107C16.5115 126.442 14.8345 127.832 14.0608 129.776C13.292 131.725 13.5415 133.945 14.7157 135.654L26.2989 152.452C26.2094 152.748 26.1272 153.047 26.0385 153.345L19.6739 160.114L36.7869 184.317C36.7869 184.317 201.025 260.172 353.372 185.601C370.774 182.474 374.83 155.914 374.83 155.914Z" fill="#E43A25"/>
<path d="M229.59 83.8559C229.59 83.8559 247.766 63.9301 265.942 83.8559C265.942 83.8559 280.224 110.426 265.942 123.71C265.942 123.71 242.573 142.308 229.59 123.71C229.59 123.71 214.011 109.096 229.59 83.8559Z" fill="#030404"/>
<path d="M248.633 93.2478C248.633 101.007 244.065 107.297 238.431 107.297C232.799 107.297 228.231 101.007 228.231 93.2478C228.231 85.4889 232.799 79.1978 238.431 79.1978C244.065 79.1978 248.633 85.4889 248.633 93.2478Z" fill="white"/>
<path d="M148.467 78.4151C148.467 78.4151 179.645 64.5933 188.155 95.4436C188.155 95.4436 197.069 131.402 162.551 133.431C162.551 133.431 118.535 124.943 148.467 78.4151Z" fill="#030404"/>
<path d="M162.126 93.7572C162.126 101.758 157.416 108.248 151.605 108.248C145.796 108.248 141.084 101.758 141.084 93.7572C141.084 85.7542 145.796 79.2666 151.605 79.2666C157.416 79.2666 162.126 85.7542 162.126 93.7572Z" fill="white"/>
<path d="M42.1218 188.531C46.261 183.821 56.3172 178.117 55.5469 171.041C54.1681 158.372 43.6745 149.124 32.109 150.386C29.2405 150.699 26.5767 151.63 24.2117 153.045C24.0373 153.005 23.8626 152.965 23.6878 152.934C23.6878 152.934 -15.4253 172.158 6.86817 210.622C7.0784 212.563 51.3472 269.447 63.7797 273.779C71.9166 276.614 56.2647 225.167 42.1218 188.531Z" fill="#E43A25"/>
<path d="M359.896 186.814C355.105 182.771 342.473 179.098 342.187 171.986C341.675 159.252 350.683 148.549 362.308 148.081C365.191 147.964 367.964 148.49 370.512 149.538C370.678 149.473 370.845 149.408 371.013 149.351C371.013 149.351 412.54 162.558 396.186 203.905C396.265 205.856 360.908 268.682 349.254 274.811C341.627 278.822 351.333 225.144 359.896 186.814Z" fill="#E43A25"/>
<path d="M205 128L291.603 178V278L205 328L118.397 278V178L205 128Z" fill="#E6FCFF"/>
<path opacity="0.8" fill-rule="evenodd" clip-rule="evenodd" d="M161.5 202.885L118.397 178V227.771L161.5 202.885ZM118.397 228.229L161.301 253L118.397 277.771V228.229Z" fill="#0B4D7F"/>
<path opacity="0.8" fill-rule="evenodd" clip-rule="evenodd" d="M204.603 278L291.205 228L204.603 178L118 228L204.603 278Z" fill="#0477BF"/>
<path opacity="0.8" fill-rule="evenodd" clip-rule="evenodd" d="M205 228L291.603 178L205 128L118.397 178L205 228Z" fill="#3DE0F2"/>
<path d="M350.434 171C350.434 171 350.955 222.883 300.173 234.46L289.585 213.161C289.585 213.161 326.382 216.725 329.213 171H350.434Z" fill="#E43A25"/>
<path d="M313.75 223.917C306.107 205.423 281.444 198.08 258.664 207.517C238.613 215.823 226.719 234.359 229.366 251.294C245.198 251.047 262.18 250.02 278.71 247.621C278.71 247.621 268.958 263.403 254.608 277.177C264.258 279.67 275.511 278.978 286.341 274.492C309.121 265.055 321.393 242.412 313.75 223.917Z" fill="#E43A25"/>
<path d="M57.0002 171C57.0002 171 56.4782 222.883 107.261 234.46L117.849 213.161C117.849 213.161 81.0518 216.725 78.2211 171H57.0002Z" fill="#E43A25"/>
<path d="M137.62 246.739C137.62 246.739 158.455 249.496 186.939 250.199C189.433 232.245 175.85 213.245 154.177 205.894C130.234 197.774 105.494 206.949 98.9168 226.388C92.3402 245.827 106.419 268.168 130.362 276.288C140.975 279.888 151.744 280.086 161.02 277.5C147.089 263.705 137.62 246.739 137.62 246.739Z" fill="#E43A25"/>
</svg>
