<svg width="600" height="280" viewBox="0 0 600 280" fill="none" xmlns="http://www.w3.org/2000/svg">
<rect width="600" height="280" fill="#E6FCFF"/>
<path d="M210 94L130 58L50 102L130 138L210 94Z" fill="#0477BF"/>
<path d="M230 66L150 30L70 74L150 110L230 66Z" fill="#3DE0F2"/>
<path d="M50 170V102L110 128.721L50 170Z" fill="#0661A5"/>
<path d="M309.95 92.4545L308.068 103.818H274.403L276.286 92.4545H309.95ZM274.865 147L284.631 88.5128C285.27 84.5592 286.572 81.2803 288.537 78.6761C290.526 76.072 292.976 74.1188 295.888 72.8168C298.823 71.5147 301.996 70.8636 305.405 70.8636C307.725 70.8636 309.82 71.0412 311.69 71.3963C313.584 71.7514 314.957 72.071 315.81 72.3551L311.3 83.7188C310.732 83.5294 310.033 83.3518 309.205 83.1861C308.376 83.0204 307.5 82.9375 306.577 82.9375C304.375 82.9375 302.753 83.4583 301.712 84.5C300.694 85.518 300.007 86.9503 299.652 88.7969L289.957 147H274.865ZM332.828 148.065C327.265 148.065 322.66 146.882 319.015 144.514C315.369 142.123 312.8 138.809 311.309 134.571C309.841 130.31 309.569 125.35 310.492 119.692C311.391 114.105 313.262 109.216 316.103 105.026C318.944 100.835 322.554 97.58 326.934 95.2599C331.313 92.9162 336.249 91.7443 341.742 91.7443C347.282 91.7443 351.874 92.9399 355.52 95.331C359.166 97.6984 361.735 101.013 363.226 105.274C364.718 109.536 365.002 114.495 364.078 120.153C363.155 125.717 361.261 130.594 358.397 134.784C355.532 138.974 351.922 142.241 347.566 144.585C343.21 146.905 338.297 148.065 332.828 148.065ZM334.32 136.347C336.877 136.347 339.138 135.625 341.103 134.18C343.091 132.713 344.737 130.724 346.039 128.214C347.364 125.681 348.288 122.817 348.809 119.621C349.329 116.472 349.365 113.679 348.915 111.24C348.465 108.778 347.518 106.837 346.074 105.416C344.654 103.996 342.701 103.286 340.215 103.286C337.658 103.286 335.385 104.019 333.397 105.487C331.408 106.931 329.763 108.92 328.461 111.453C327.158 113.986 326.247 116.863 325.726 120.082C325.229 123.207 325.194 126.001 325.62 128.463C326.046 130.902 326.981 132.831 328.425 134.251C329.869 135.648 331.834 136.347 334.32 136.347ZM373.684 167.455C371.743 167.455 369.967 167.301 368.358 166.993C366.748 166.709 365.422 166.342 364.38 165.892L369.707 154.599C371.388 155.144 372.915 155.428 374.288 155.452C375.685 155.475 376.963 155.12 378.123 154.386C379.283 153.652 380.349 152.445 381.319 150.764L382.669 148.456L372.441 92.4545H387.782L392.399 132.582H392.967L411.042 92.4545H427.626L396.412 152.895C394.873 155.854 393.05 158.423 390.943 160.601C388.859 162.779 386.386 164.46 383.521 165.643C380.68 166.851 377.401 167.455 373.684 167.455ZM449.235 148.065C443.648 148.065 439.019 146.929 435.35 144.656C431.68 142.36 429.1 139.116 427.608 134.926C426.141 130.712 425.892 125.729 426.863 119.976C427.81 114.365 429.715 109.441 432.58 105.203C435.468 100.965 439.09 97.6629 443.446 95.2955C447.802 92.928 452.656 91.7443 458.006 91.7443C461.605 91.7443 464.86 92.3243 467.772 93.4844C470.707 94.6207 473.146 96.349 475.087 98.669C477.028 100.965 478.354 103.842 479.064 107.298C479.798 110.755 479.786 114.803 479.029 119.443L478.354 123.598H432.331L433.787 114.223H465.605C465.961 112.045 465.819 110.116 465.179 108.435C464.54 106.754 463.475 105.44 461.983 104.493C460.492 103.522 458.657 103.037 456.479 103.037C454.254 103.037 452.17 103.581 450.229 104.67C448.288 105.759 446.654 107.192 445.328 108.967C444.026 110.719 443.186 112.625 442.807 114.685L441.138 123.989C440.665 126.853 440.759 129.232 441.422 131.126C442.109 133.02 443.292 134.441 444.973 135.388C446.654 136.311 448.785 136.773 451.365 136.773C453.046 136.773 454.621 136.536 456.088 136.062C457.58 135.589 458.906 134.891 460.066 133.967C461.226 133.02 462.173 131.848 462.907 130.452L476.721 131.375C475.442 134.737 473.501 137.672 470.897 140.182C468.292 142.668 465.156 144.609 461.486 146.006C457.84 147.379 453.757 148.065 449.235 148.065ZM484.382 147L493.473 92.4545H508.139L506.541 101.972H507.109C508.672 98.5862 510.767 96.0294 513.395 94.3011C516.046 92.5492 518.899 91.6733 521.953 91.6733C522.711 91.6733 523.504 91.7206 524.332 91.8153C525.185 91.8864 525.942 92.0047 526.605 92.1705L524.332 105.629C523.67 105.393 522.723 105.203 521.491 105.061C520.284 104.895 519.136 104.812 518.047 104.812C515.845 104.812 513.797 105.298 511.903 106.268C510.009 107.215 508.411 108.541 507.109 110.246C505.831 111.95 504.991 113.915 504.588 116.141L499.51 147H484.382Z" fill="#0477BF"/>
<path d="M54.2273 236V201.091H58.4545V216.636H77.0682V201.091H81.2955V236H77.0682V220.386H58.4545V236H54.2273ZM91.804 245.818C91.1222 245.818 90.5142 245.761 89.9801 245.648C89.446 245.545 89.0767 245.443 88.8722 245.341L89.8949 241.795C90.8722 242.045 91.7358 242.136 92.4858 242.068C93.2358 242 93.9006 241.665 94.4801 241.062C95.071 240.472 95.6108 239.511 96.0994 238.182L96.8494 236.136L87.1676 209.818H91.5312L98.7585 230.682H99.0312L106.259 209.818H110.622L99.5085 239.818C99.0085 241.17 98.3892 242.29 97.6506 243.176C96.9119 244.074 96.054 244.739 95.0767 245.17C94.1108 245.602 93.0199 245.818 91.804 245.818ZM116.477 236V201.091H120.5V213.977H120.841C121.136 213.523 121.545 212.943 122.068 212.239C122.602 211.523 123.364 210.886 124.352 210.33C125.352 209.761 126.705 209.477 128.409 209.477C130.614 209.477 132.557 210.028 134.239 211.131C135.92 212.233 137.233 213.795 138.176 215.818C139.119 217.841 139.591 220.227 139.591 222.977C139.591 225.75 139.119 228.153 138.176 230.188C137.233 232.21 135.926 233.778 134.256 234.892C132.585 235.994 130.659 236.545 128.477 236.545C126.795 236.545 125.449 236.267 124.438 235.71C123.426 235.142 122.648 234.5 122.102 233.784C121.557 233.057 121.136 232.455 120.841 231.977H120.364V236H116.477ZM120.432 222.909C120.432 224.886 120.722 226.631 121.301 228.142C121.881 229.642 122.727 230.818 123.841 231.67C124.955 232.511 126.318 232.932 127.932 232.932C129.614 232.932 131.017 232.489 132.142 231.602C133.278 230.705 134.131 229.5 134.699 227.989C135.278 226.466 135.568 224.773 135.568 222.909C135.568 221.068 135.284 219.409 134.716 217.932C134.159 216.443 133.313 215.267 132.176 214.403C131.051 213.528 129.636 213.091 127.932 213.091C126.295 213.091 124.92 213.506 123.807 214.335C122.693 215.153 121.852 216.301 121.284 217.778C120.716 219.244 120.432 220.955 120.432 222.909ZM145.744 236V209.818H149.631V213.773H149.903C150.381 212.477 151.244 211.426 152.494 210.619C153.744 209.812 155.153 209.409 156.722 209.409C157.017 209.409 157.386 209.415 157.83 209.426C158.273 209.437 158.608 209.455 158.835 209.477V213.568C158.699 213.534 158.386 213.483 157.898 213.415C157.42 213.335 156.915 213.295 156.381 213.295C155.108 213.295 153.972 213.562 152.972 214.097C151.983 214.619 151.199 215.347 150.619 216.278C150.051 217.199 149.767 218.25 149.767 219.432V236H145.744ZM163.604 236V209.818H167.626V236H163.604ZM165.649 205.455C164.865 205.455 164.189 205.188 163.621 204.653C163.064 204.119 162.786 203.477 162.786 202.727C162.786 201.977 163.064 201.335 163.621 200.801C164.189 200.267 164.865 200 165.649 200C166.433 200 167.104 200.267 167.661 200.801C168.229 201.335 168.513 201.977 168.513 202.727C168.513 203.477 168.229 204.119 167.661 204.653C167.104 205.188 166.433 205.455 165.649 205.455ZM184.881 236.545C182.699 236.545 180.773 235.994 179.102 234.892C177.432 233.778 176.125 232.21 175.182 230.188C174.239 228.153 173.767 225.75 173.767 222.977C173.767 220.227 174.239 217.841 175.182 215.818C176.125 213.795 177.438 212.233 179.119 211.131C180.801 210.028 182.744 209.477 184.949 209.477C186.653 209.477 188 209.761 188.989 210.33C189.989 210.886 190.75 211.523 191.273 212.239C191.807 212.943 192.222 213.523 192.517 213.977H192.858V201.091H196.881V236H192.994V231.977H192.517C192.222 232.455 191.801 233.057 191.256 233.784C190.71 234.5 189.932 235.142 188.92 235.71C187.909 236.267 186.563 236.545 184.881 236.545ZM185.426 232.932C187.04 232.932 188.403 232.511 189.517 231.67C190.631 230.818 191.477 229.642 192.057 228.142C192.636 226.631 192.926 224.886 192.926 222.909C192.926 220.955 192.642 219.244 192.074 217.778C191.506 216.301 190.665 215.153 189.551 214.335C188.438 213.506 187.063 213.091 185.426 213.091C183.722 213.091 182.301 213.528 181.165 214.403C180.04 215.267 179.193 216.443 178.625 217.932C178.068 219.409 177.79 221.068 177.79 222.909C177.79 224.773 178.074 226.466 178.642 227.989C179.222 229.5 180.074 230.705 181.199 231.602C182.335 232.489 183.744 232.932 185.426 232.932ZM246.943 212H242.716C242.466 210.784 242.028 209.716 241.403 208.795C240.79 207.875 240.04 207.102 239.153 206.477C238.278 205.841 237.307 205.364 236.239 205.045C235.17 204.727 234.057 204.568 232.898 204.568C230.784 204.568 228.869 205.102 227.153 206.17C225.449 207.239 224.091 208.812 223.08 210.892C222.08 212.972 221.58 215.523 221.58 218.545C221.58 221.568 222.08 224.119 223.08 226.199C224.091 228.278 225.449 229.852 227.153 230.92C228.869 231.989 230.784 232.523 232.898 232.523C234.057 232.523 235.17 232.364 236.239 232.045C237.307 231.727 238.278 231.256 239.153 230.631C240.04 229.994 240.79 229.216 241.403 228.295C242.028 227.364 242.466 226.295 242.716 225.091H246.943C246.625 226.875 246.045 228.472 245.205 229.881C244.364 231.29 243.318 232.489 242.068 233.477C240.818 234.455 239.415 235.199 237.858 235.71C236.313 236.222 234.659 236.477 232.898 236.477C229.92 236.477 227.273 235.75 224.955 234.295C222.636 232.841 220.813 230.773 219.483 228.091C218.153 225.409 217.489 222.227 217.489 218.545C217.489 214.864 218.153 211.682 219.483 209C220.813 206.318 222.636 204.25 224.955 202.795C227.273 201.341 229.92 200.614 232.898 200.614C234.659 200.614 236.313 200.869 237.858 201.381C239.415 201.892 240.818 202.642 242.068 203.631C243.318 204.608 244.364 205.801 245.205 207.21C246.045 208.608 246.625 210.205 246.943 212ZM260.933 236.614C259.274 236.614 257.768 236.301 256.416 235.676C255.064 235.04 253.99 234.125 253.195 232.932C252.399 231.727 252.001 230.273 252.001 228.568C252.001 227.068 252.297 225.852 252.888 224.92C253.479 223.977 254.268 223.239 255.257 222.705C256.246 222.17 257.337 221.773 258.53 221.511C259.734 221.239 260.945 221.023 262.161 220.864C263.751 220.659 265.041 220.506 266.03 220.403C267.03 220.29 267.757 220.102 268.212 219.841C268.678 219.58 268.911 219.125 268.911 218.477V218.341C268.911 216.659 268.45 215.352 267.53 214.42C266.621 213.489 265.24 213.023 263.388 213.023C261.467 213.023 259.962 213.443 258.871 214.284C257.78 215.125 257.013 216.023 256.57 216.977L252.751 215.614C253.433 214.023 254.342 212.784 255.479 211.898C256.626 211 257.876 210.375 259.229 210.023C260.592 209.659 261.933 209.477 263.251 209.477C264.092 209.477 265.058 209.58 266.149 209.784C267.251 209.977 268.314 210.381 269.337 210.994C270.371 211.608 271.229 212.534 271.911 213.773C272.592 215.011 272.933 216.67 272.933 218.75V236H268.911V232.455H268.706C268.433 233.023 267.979 233.631 267.342 234.278C266.706 234.926 265.859 235.477 264.803 235.932C263.746 236.386 262.456 236.614 260.933 236.614ZM261.547 233C263.138 233 264.479 232.688 265.57 232.062C266.672 231.438 267.501 230.631 268.058 229.642C268.626 228.653 268.911 227.614 268.911 226.523V222.841C268.74 223.045 268.365 223.233 267.786 223.403C267.217 223.562 266.558 223.705 265.808 223.83C265.07 223.943 264.348 224.045 263.643 224.136C262.95 224.216 262.388 224.284 261.956 224.341C260.911 224.477 259.933 224.699 259.024 225.006C258.126 225.301 257.399 225.75 256.842 226.352C256.297 226.943 256.024 227.75 256.024 228.773C256.024 230.17 256.541 231.227 257.575 231.943C258.621 232.648 259.945 233 261.547 233ZM290.912 236.545C288.457 236.545 286.344 235.966 284.571 234.807C282.798 233.648 281.435 232.051 280.48 230.017C279.526 227.983 279.048 225.659 279.048 223.045C279.048 220.386 279.537 218.04 280.514 216.006C281.503 213.96 282.878 212.364 284.639 211.216C286.412 210.057 288.48 209.477 290.844 209.477C292.685 209.477 294.344 209.818 295.821 210.5C297.298 211.182 298.509 212.136 299.452 213.364C300.395 214.591 300.98 216.023 301.207 217.659H297.185C296.878 216.466 296.196 215.409 295.139 214.489C294.094 213.557 292.685 213.091 290.912 213.091C289.344 213.091 287.969 213.5 286.787 214.318C285.616 215.125 284.702 216.267 284.043 217.744C283.395 219.21 283.071 220.932 283.071 222.909C283.071 224.932 283.389 226.693 284.026 228.193C284.673 229.693 285.582 230.858 286.753 231.688C287.935 232.517 289.321 232.932 290.912 232.932C291.957 232.932 292.906 232.75 293.759 232.386C294.611 232.023 295.332 231.5 295.923 230.818C296.514 230.136 296.935 229.318 297.185 228.364H301.207C300.98 229.909 300.418 231.301 299.52 232.54C298.634 233.767 297.457 234.744 295.991 235.472C294.537 236.188 292.844 236.545 290.912 236.545ZM311.111 220.25V236H307.088V201.091H311.111V213.909H311.452C312.065 212.557 312.986 211.483 314.213 210.688C315.452 209.881 317.099 209.477 319.156 209.477C320.94 209.477 322.503 209.835 323.844 210.551C325.185 211.256 326.224 212.341 326.963 213.807C327.713 215.261 328.088 217.114 328.088 219.364V236H324.065V219.636C324.065 217.557 323.526 215.949 322.446 214.812C321.378 213.665 319.895 213.091 317.997 213.091C316.679 213.091 315.497 213.369 314.452 213.926C313.418 214.483 312.599 215.295 311.997 216.364C311.406 217.432 311.111 218.727 311.111 220.25ZM346.425 236.545C343.902 236.545 341.726 235.989 339.896 234.875C338.078 233.75 336.675 232.182 335.686 230.17C334.709 228.148 334.22 225.795 334.22 223.114C334.22 220.432 334.709 218.068 335.686 216.023C336.675 213.966 338.05 212.364 339.811 211.216C341.584 210.057 343.652 209.477 346.016 209.477C347.379 209.477 348.726 209.705 350.055 210.159C351.385 210.614 352.595 211.352 353.686 212.375C354.777 213.386 355.646 214.727 356.294 216.398C356.942 218.068 357.266 220.125 357.266 222.568V224.273H337.084V220.795H353.175C353.175 219.318 352.879 218 352.288 216.841C351.709 215.682 350.879 214.767 349.8 214.097C348.732 213.426 347.47 213.091 346.016 213.091C344.413 213.091 343.027 213.489 341.857 214.284C340.697 215.068 339.805 216.091 339.18 217.352C338.555 218.614 338.243 219.966 338.243 221.409V223.727C338.243 225.705 338.584 227.381 339.266 228.756C339.959 230.119 340.919 231.159 342.146 231.875C343.374 232.58 344.8 232.932 346.425 232.932C347.482 232.932 348.436 232.784 349.288 232.489C350.152 232.182 350.896 231.727 351.521 231.125C352.146 230.511 352.629 229.75 352.97 228.841L356.857 229.932C356.447 231.25 355.76 232.409 354.794 233.409C353.828 234.398 352.635 235.17 351.214 235.727C349.794 236.273 348.197 236.545 346.425 236.545ZM376.885 236V209.818H380.908V236H376.885ZM378.93 205.455C378.146 205.455 377.47 205.188 376.902 204.653C376.345 204.119 376.067 203.477 376.067 202.727C376.067 201.977 376.345 201.335 376.902 200.801C377.47 200.267 378.146 200 378.93 200C379.714 200 380.385 200.267 380.942 200.801C381.51 201.335 381.794 201.977 381.794 202.727C381.794 203.477 381.51 204.119 380.942 204.653C380.385 205.188 379.714 205.455 378.93 205.455ZM392.298 220.25V236H388.276V209.818H392.162V213.909H392.503C393.116 212.58 394.048 211.511 395.298 210.705C396.548 209.886 398.162 209.477 400.139 209.477C401.912 209.477 403.463 209.841 404.793 210.568C406.122 211.284 407.156 212.375 407.895 213.841C408.634 215.295 409.003 217.136 409.003 219.364V236H404.98V219.636C404.98 217.58 404.446 215.977 403.378 214.83C402.31 213.67 400.844 213.091 398.98 213.091C397.696 213.091 396.548 213.369 395.537 213.926C394.537 214.483 393.747 215.295 393.168 216.364C392.588 217.432 392.298 218.727 392.298 220.25ZM430.399 236V201.091H442.195C444.922 201.091 447.161 201.557 448.911 202.489C450.661 203.409 451.956 204.676 452.797 206.29C453.638 207.903 454.058 209.739 454.058 211.795C454.058 213.852 453.638 215.676 452.797 217.267C451.956 218.858 450.666 220.108 448.928 221.017C447.189 221.915 444.967 222.364 442.263 222.364H432.717V218.545H442.126C443.99 218.545 445.49 218.273 446.626 217.727C447.774 217.182 448.604 216.409 449.115 215.409C449.638 214.398 449.899 213.193 449.899 211.795C449.899 210.398 449.638 209.176 449.115 208.131C448.592 207.085 447.757 206.278 446.609 205.71C445.462 205.131 443.945 204.841 442.058 204.841H434.626V236H430.399ZM446.831 220.318L455.422 236H450.513L442.058 220.318H446.831ZM477.057 225.295V209.818H481.08V236H477.057V231.568H476.784C476.17 232.898 475.216 234.028 473.92 234.96C472.625 235.881 470.989 236.341 469.011 236.341C467.375 236.341 465.92 235.983 464.648 235.267C463.375 234.54 462.375 233.449 461.648 231.994C460.92 230.528 460.557 228.682 460.557 226.455V209.818H464.58V226.182C464.58 228.091 465.114 229.614 466.182 230.75C467.261 231.886 468.636 232.455 470.307 232.455C471.307 232.455 472.324 232.199 473.358 231.688C474.403 231.176 475.278 230.392 475.983 229.335C476.699 228.278 477.057 226.932 477.057 225.295ZM506.993 215.682L503.379 216.705C503.152 216.102 502.817 215.517 502.374 214.949C501.942 214.369 501.351 213.892 500.601 213.517C499.851 213.142 498.891 212.955 497.72 212.955C496.118 212.955 494.783 213.324 493.714 214.062C492.658 214.79 492.129 215.716 492.129 216.841C492.129 217.841 492.493 218.631 493.22 219.21C493.947 219.79 495.084 220.273 496.629 220.659L500.516 221.614C502.857 222.182 504.601 223.051 505.749 224.222C506.896 225.381 507.47 226.875 507.47 228.705C507.47 230.205 507.038 231.545 506.175 232.727C505.322 233.909 504.129 234.841 502.595 235.523C501.061 236.205 499.277 236.545 497.243 236.545C494.572 236.545 492.362 235.966 490.612 234.807C488.862 233.648 487.754 231.955 487.288 229.727L491.107 228.773C491.47 230.182 492.158 231.239 493.169 231.943C494.192 232.648 495.527 233 497.175 233C499.05 233 500.538 232.602 501.641 231.807C502.754 231 503.311 230.034 503.311 228.909C503.311 228 502.993 227.239 502.357 226.625C501.72 226 500.743 225.534 499.425 225.227L495.061 224.205C492.663 223.636 490.902 222.756 489.777 221.562C488.663 220.358 488.107 218.852 488.107 217.045C488.107 215.568 488.521 214.261 489.351 213.125C490.192 211.989 491.334 211.097 492.777 210.449C494.232 209.801 495.879 209.477 497.72 209.477C500.311 209.477 502.345 210.045 503.822 211.182C505.311 212.318 506.368 213.818 506.993 215.682ZM524.912 209.818V213.227H511.344V209.818H524.912ZM515.298 203.545H519.321V228.5C519.321 229.636 519.486 230.489 519.815 231.057C520.156 231.614 520.588 231.989 521.111 232.182C521.645 232.364 522.207 232.455 522.798 232.455C523.241 232.455 523.605 232.432 523.889 232.386C524.173 232.33 524.401 232.284 524.571 232.25L525.389 235.864C525.116 235.966 524.736 236.068 524.247 236.17C523.759 236.284 523.139 236.341 522.389 236.341C521.253 236.341 520.139 236.097 519.048 235.608C517.969 235.119 517.071 234.375 516.355 233.375C515.651 232.375 515.298 231.114 515.298 229.591V203.545Z" fill="#0477BF"/>
</svg>
