<svg width="600" height="280" fill="none" xmlns="http://www.w3.org/2000/svg"><path fill="#E6FCFF" d="M0 0h600v280H0z"/><path d="M210 94l-80-36-80 44 80 36 80-44z" fill="#0477BF"/><path d="M230 66l-80-36-80 44 80 36 80-44z" fill="#3DE0F2"/><path d="M50 170v-68l60 26.721L50 170z" fill="#0661A5"/><path d="M309.95 92.454l-1.882 11.364h-33.665l1.883-11.364h33.664zM274.865 147l9.766-58.487c.639-3.954 1.941-7.233 3.906-9.837 1.989-2.604 4.439-4.557 7.351-5.86 2.935-1.301 6.108-1.952 9.517-1.952 2.32 0 4.415.177 6.285.532 1.894.355 3.267.675 4.12.96l-4.51 11.363a17.781 17.781 0 00-2.095-.533 13.39 13.39 0 00-2.628-.249c-2.202 0-3.824.521-4.865 1.563-1.018 1.018-1.705 2.45-2.06 4.297L289.957 147h-15.092zm57.963 1.065c-5.563 0-10.168-1.183-13.813-3.551-3.646-2.391-6.215-5.705-7.706-9.943-1.468-4.261-1.74-9.221-.817-14.879.899-5.587 2.77-10.476 5.611-14.666 2.841-4.191 6.451-7.446 10.831-9.766 4.379-2.344 9.315-3.516 14.808-3.516 5.54 0 10.132 1.196 13.778 3.587 3.646 2.367 6.215 5.682 7.706 9.943 1.492 4.262 1.776 9.221.852 14.879-.923 5.564-2.817 10.441-5.681 14.631-2.865 4.19-6.475 7.457-10.831 9.801-4.356 2.32-9.269 3.48-14.738 3.48zm1.492-11.718c2.557 0 4.818-.722 6.783-2.167 1.988-1.467 3.634-3.456 4.936-5.966 1.325-2.533 2.249-5.397 2.77-8.593.52-3.149.556-5.942.106-8.381-.45-2.462-1.397-4.403-2.841-5.824-1.42-1.42-3.373-2.13-5.859-2.13-2.557 0-4.83.733-6.818 2.201-1.989 1.444-3.634 3.433-4.936 5.966-1.303 2.533-2.214 5.41-2.735 8.629-.497 3.125-.532 5.919-.106 8.381.426 2.439 1.361 4.368 2.805 5.788 1.444 1.397 3.409 2.096 5.895 2.096zm39.364 31.108c-1.941 0-3.717-.154-5.326-.462-1.61-.284-2.936-.651-3.978-1.101l5.327-11.293c1.681.545 3.208.829 4.581.853a6.81 6.81 0 003.835-1.066c1.16-.734 2.226-1.941 3.196-3.622l1.35-2.308-10.228-56.001h15.341l4.617 40.127h.568l18.075-40.127h16.584l-31.214 60.44c-1.539 2.959-3.362 5.528-5.469 7.706-2.084 2.178-4.557 3.859-7.422 5.042-2.841 1.208-6.12 1.812-9.837 1.812zm75.551-19.39c-5.587 0-10.216-1.136-13.885-3.409-3.67-2.296-6.25-5.54-7.742-9.73-1.467-4.214-1.716-9.197-.745-14.95.947-5.611 2.852-10.535 5.717-14.773 2.888-4.238 6.51-7.54 10.866-9.907 4.356-2.368 9.21-3.552 14.56-3.552 3.599 0 6.854.58 9.766 1.74 2.935 1.137 5.374 2.865 7.315 5.185 1.941 2.296 3.267 5.173 3.977 8.629.734 3.457.722 7.505-.035 12.145l-.675 4.155h-46.023l1.456-9.375h31.818c.356-2.178.214-4.107-.426-5.788-.639-1.681-1.704-2.995-3.196-3.942-1.491-.971-3.326-1.456-5.504-1.456a12.57 12.57 0 00-6.25 1.633 15.544 15.544 0 00-4.901 4.297c-1.302 1.752-2.142 3.658-2.521 5.718l-1.669 9.304c-.473 2.864-.379 5.243.284 7.137.687 1.894 1.87 3.315 3.551 4.262 1.681.923 3.812 1.385 6.392 1.385 1.681 0 3.256-.237 4.723-.711 1.492-.473 2.818-1.171 3.978-2.095 1.16-.947 2.107-2.119 2.841-3.515l13.814.923a23.887 23.887 0 01-5.824 8.807c-2.605 2.486-5.741 4.427-9.411 5.824-3.646 1.373-7.729 2.059-12.251 2.059zM484.382 147l9.091-54.546h14.666l-1.598 9.518h.568c1.563-3.386 3.658-5.943 6.286-7.67 2.651-1.753 5.504-2.629 8.558-2.629.758 0 1.551.048 2.379.142.853.071 1.61.19 2.273.356l-2.273 13.458c-.662-.236-1.609-.426-2.841-.568a25.314 25.314 0 00-3.444-.249c-2.202 0-4.25.486-6.144 1.456a13.636 13.636 0 00-4.794 3.978c-1.278 1.704-2.118 3.669-2.521 5.895L499.51 147h-15.128zM54.227 236v-34.909h4.228v15.545h18.613v-15.545h4.228V236h-4.228v-15.614H58.455V236h-4.228zm37.577 9.818c-.682 0-1.29-.057-1.824-.17-.534-.103-.903-.205-1.108-.307l1.023-3.546c.977.25 1.84.341 2.59.273.75-.068 1.416-.403 1.995-1.006.591-.59 1.13-1.551 1.62-2.88l.75-2.046-9.682-26.318h4.363l7.227 20.864h.273l7.228-20.864h4.363l-11.114 30c-.5 1.352-1.119 2.472-1.857 3.358-.74.898-1.597 1.563-2.574 1.994-.966.432-2.057.648-3.273.648zM116.477 236v-34.909h4.023v12.886h.341c.295-.454.704-1.034 1.227-1.738.534-.716 1.296-1.353 2.284-1.909 1-.569 2.353-.853 4.057-.853 2.205 0 4.148.551 5.83 1.654 1.681 1.102 2.994 2.664 3.937 4.687.943 2.023 1.415 4.409 1.415 7.159 0 2.773-.472 5.176-1.415 7.211-.943 2.022-2.25 3.59-3.92 4.704-1.671 1.102-3.597 1.653-5.779 1.653-1.682 0-3.028-.278-4.039-.835-1.012-.568-1.79-1.21-2.336-1.926a25.538 25.538 0 01-1.261-1.807h-.477V236h-3.887zm3.955-13.091c0 1.977.29 3.722.869 5.233.58 1.5 1.426 2.676 2.54 3.528 1.114.841 2.477 1.262 4.091 1.262 1.682 0 3.085-.443 4.21-1.33 1.136-.897 1.989-2.102 2.557-3.613.579-1.523.869-3.216.869-5.08 0-1.841-.284-3.5-.852-4.977-.557-1.489-1.403-2.665-2.54-3.529-1.125-.875-2.54-1.312-4.244-1.312-1.637 0-3.012.415-4.125 1.244-1.114.818-1.955 1.966-2.523 3.443-.568 1.466-.852 3.177-.852 5.131zM145.744 236v-26.182h3.887v3.955h.272c.478-1.296 1.341-2.347 2.591-3.154 1.25-.807 2.659-1.21 4.228-1.21.295 0 .664.006 1.108.017.443.011.778.029 1.005.051v4.091a11.965 11.965 0 00-.937-.153 9.181 9.181 0 00-1.517-.12c-1.273 0-2.409.267-3.409.802a6.044 6.044 0 00-2.353 2.181c-.568.921-.852 1.972-.852 3.154V236h-4.023zm17.86 0v-26.182h4.022V236h-4.022zm2.045-30.545c-.784 0-1.46-.267-2.028-.802-.557-.534-.835-1.176-.835-1.926s.278-1.392.835-1.926a2.86 2.86 0 012.028-.801c.784 0 1.455.267 2.012.801.568.534.852 1.176.852 1.926s-.284 1.392-.852 1.926a2.8 2.8 0 01-2.012.802zm19.232 31.09c-2.182 0-4.108-.551-5.779-1.653-1.67-1.114-2.977-2.682-3.92-4.704-.943-2.035-1.415-4.438-1.415-7.211 0-2.75.472-5.136 1.415-7.159.943-2.023 2.256-3.585 3.937-4.687 1.682-1.103 3.625-1.654 5.83-1.654 1.704 0 3.051.284 4.04.853 1 .556 1.761 1.193 2.284 1.909.534.704.949 1.284 1.244 1.738h.341v-12.886h4.023V236h-3.887v-4.023h-.477c-.295.478-.716 1.08-1.261 1.807-.546.716-1.324 1.358-2.336 1.926-1.011.557-2.357.835-4.039.835zm.545-3.613c1.614 0 2.977-.421 4.091-1.262 1.114-.852 1.96-2.028 2.54-3.528.579-1.511.869-3.256.869-5.233 0-1.954-.284-3.665-.852-5.131-.568-1.477-1.409-2.625-2.523-3.443-1.113-.829-2.488-1.244-4.125-1.244-1.704 0-3.125.437-4.261 1.312-1.125.864-1.972 2.04-2.54 3.529-.557 1.477-.835 3.136-.835 4.977 0 1.864.284 3.557.852 5.08.58 1.511 1.432 2.716 2.557 3.613 1.136.887 2.545 1.33 4.227 1.33zM246.943 212h-4.227c-.25-1.216-.688-2.284-1.313-3.205a8.727 8.727 0 00-2.25-2.318 9.576 9.576 0 00-2.914-1.432 11.652 11.652 0 00-3.341-.477c-2.114 0-4.029.534-5.745 1.602-1.704 1.069-3.062 2.642-4.073 4.722-1 2.08-1.5 4.631-1.5 7.653 0 3.023.5 5.574 1.5 7.654 1.011 2.079 2.369 3.653 4.073 4.721 1.716 1.069 3.631 1.603 5.745 1.603 1.159 0 2.272-.159 3.341-.478a9.768 9.768 0 002.914-1.414 8.965 8.965 0 002.25-2.336c.625-.931 1.063-2 1.313-3.204h4.227c-.318 1.784-.898 3.381-1.738 4.79a13.085 13.085 0 01-3.137 3.596 13.709 13.709 0 01-4.21 2.233c-1.545.512-3.199.767-4.96.767-2.978 0-5.625-.727-7.943-2.182-2.319-1.454-4.142-3.522-5.472-6.204s-1.994-5.864-1.994-9.546c0-3.681.664-6.863 1.994-9.545 1.33-2.682 3.153-4.75 5.472-6.205 2.318-1.454 4.965-2.181 7.943-2.181 1.761 0 3.415.255 4.96.767a13.519 13.519 0 014.21 2.25c1.25.977 2.296 2.17 3.137 3.579.84 1.398 1.42 2.995 1.738 4.79zm13.99 24.614c-1.659 0-3.165-.313-4.517-.938-1.352-.636-2.426-1.551-3.221-2.744-.796-1.205-1.194-2.659-1.194-4.364 0-1.5.296-2.716.887-3.648a6.252 6.252 0 012.369-2.215c.989-.535 2.08-.932 3.273-1.194a40.022 40.022 0 013.631-.647c1.59-.205 2.88-.358 3.869-.461 1-.113 1.727-.301 2.182-.562.466-.261.699-.716.699-1.364v-.136c0-1.682-.461-2.989-1.381-3.921-.909-.931-2.29-1.397-4.142-1.397-1.921 0-3.426.42-4.517 1.261-1.091.841-1.858 1.739-2.301 2.693l-3.819-1.363c.682-1.591 1.591-2.83 2.728-3.716a10.202 10.202 0 013.75-1.875 15.547 15.547 0 014.022-.546c.841 0 1.807.103 2.898.307a9.29 9.29 0 013.188 1.21c1.034.614 1.892 1.54 2.574 2.779.681 1.238 1.022 2.897 1.022 4.977V236h-4.022v-3.545h-.205c-.273.568-.727 1.176-1.364 1.823-.636.648-1.483 1.199-2.539 1.654-1.057.454-2.347.682-3.87.682zm.614-3.614c1.591 0 2.932-.312 4.023-.938 1.102-.624 1.931-1.431 2.488-2.42.568-.989.853-2.028.853-3.119v-3.682c-.171.204-.546.392-1.125.562-.569.159-1.228.302-1.978.427a92.83 92.83 0 01-2.165.306c-.693.08-1.255.148-1.687.205a15.334 15.334 0 00-2.932.665c-.898.295-1.625.744-2.182 1.346-.545.591-.818 1.398-.818 2.421 0 1.397.517 2.454 1.551 3.17 1.046.705 2.37 1.057 3.972 1.057zm29.365 3.545c-2.455 0-4.568-.579-6.341-1.738-1.773-1.159-3.136-2.756-4.091-4.79-.954-2.034-1.432-4.358-1.432-6.972 0-2.659.489-5.005 1.466-7.039.989-2.046 2.364-3.642 4.125-4.79 1.773-1.159 3.841-1.739 6.205-1.739 1.841 0 3.5.341 4.977 1.023 1.477.682 2.688 1.636 3.631 2.864.943 1.227 1.528 2.659 1.755 4.295h-4.022c-.307-1.193-.989-2.25-2.046-3.17-1.045-.932-2.454-1.398-4.227-1.398-1.568 0-2.943.409-4.125 1.227-1.171.807-2.085 1.949-2.744 3.426-.648 1.466-.972 3.188-.972 5.165 0 2.023.318 3.784.955 5.284.647 1.5 1.556 2.665 2.727 3.495 1.182.829 2.568 1.244 4.159 1.244 1.045 0 1.994-.182 2.847-.546a5.862 5.862 0 002.164-1.568c.591-.682 1.012-1.5 1.262-2.454h4.022a9.315 9.315 0 01-1.687 4.176c-.886 1.227-2.063 2.204-3.529 2.932-1.454.716-3.147 1.073-5.079 1.073zm20.199-16.295V236h-4.023v-34.909h4.023v12.818h.341a7.395 7.395 0 012.761-3.221c1.239-.807 2.886-1.211 4.943-1.211 1.784 0 3.347.358 4.688 1.074 1.341.705 2.38 1.79 3.119 3.256.75 1.454 1.125 3.307 1.125 5.557V236h-4.023v-16.364c0-2.079-.539-3.687-1.619-4.824-1.068-1.147-2.551-1.721-4.449-1.721-1.318 0-2.5.278-3.545.835-1.034.557-1.853 1.369-2.455 2.438-.591 1.068-.886 2.363-.886 3.886zm35.314 16.295c-2.523 0-4.699-.556-6.529-1.67-1.818-1.125-3.221-2.693-4.21-4.705-.977-2.022-1.466-4.375-1.466-7.056 0-2.682.489-5.046 1.466-7.091.989-2.057 2.364-3.659 4.125-4.807 1.773-1.159 3.841-1.739 6.205-1.739 1.363 0 2.71.228 4.039.682 1.33.455 2.54 1.193 3.631 2.216 1.091 1.011 1.96 2.352 2.608 4.023.648 1.67.972 3.727.972 6.17v1.705h-20.182v-3.478h16.091c0-1.477-.296-2.795-.887-3.954a6.675 6.675 0 00-2.488-2.744c-1.068-.671-2.33-1.006-3.784-1.006-1.603 0-2.989.398-4.159 1.193a7.845 7.845 0 00-2.677 3.068 9.016 9.016 0 00-.937 4.057v2.318c0 1.978.341 3.654 1.023 5.029.693 1.363 1.653 2.403 2.88 3.119 1.228.705 2.654 1.057 4.279 1.057 1.057 0 2.011-.148 2.863-.443a6.134 6.134 0 002.233-1.364c.625-.614 1.108-1.375 1.449-2.284l3.887 1.091a8.628 8.628 0 01-2.063 3.477c-.966.989-2.159 1.761-3.58 2.318-1.42.546-3.017.818-4.789.818zm30.46-.545v-26.182h4.023V236h-4.023zm2.045-30.545c-.784 0-1.46-.267-2.028-.802-.557-.534-.835-1.176-.835-1.926s.278-1.392.835-1.926a2.86 2.86 0 012.028-.801c.784 0 1.455.267 2.012.801.568.534.852 1.176.852 1.926s-.284 1.392-.852 1.926a2.8 2.8 0 01-2.012.802zm13.368 14.795V236h-4.022v-26.182h3.886v4.091h.341a7.469 7.469 0 012.795-3.204c1.25-.819 2.864-1.228 4.841-1.228 1.773 0 3.324.364 4.654 1.091 1.329.716 2.363 1.807 3.102 3.273.739 1.454 1.108 3.295 1.108 5.523V236h-4.023v-16.364c0-2.056-.534-3.659-1.602-4.806-1.068-1.16-2.534-1.739-4.398-1.739-1.284 0-2.432.278-3.443.835-1 .557-1.79 1.369-2.369 2.438-.58 1.068-.87 2.363-.87 3.886zM430.399 236v-34.909h11.796c2.727 0 4.966.466 6.716 1.398 1.75.92 3.045 2.187 3.886 3.801.841 1.613 1.261 3.449 1.261 5.505 0 2.057-.42 3.881-1.261 5.472-.841 1.591-2.131 2.841-3.869 3.75-1.739.898-3.961 1.347-6.665 1.347h-9.546v-3.819h9.409c1.864 0 3.364-.272 4.5-.818 1.148-.545 1.978-1.318 2.489-2.318.523-1.011.784-2.216.784-3.614 0-1.397-.261-2.619-.784-3.664-.523-1.046-1.358-1.853-2.506-2.421-1.147-.579-2.664-.869-4.551-.869h-7.432V236h-4.227zm16.432-15.682L455.422 236h-4.909l-8.455-15.682h4.773zm30.226 4.977v-15.477h4.023V236h-4.023v-4.432h-.273c-.614 1.33-1.568 2.46-2.864 3.392-1.295.921-2.931 1.381-4.909 1.381-1.636 0-3.091-.358-4.363-1.074-1.273-.727-2.273-1.818-3-3.273-.728-1.466-1.091-3.312-1.091-5.539v-16.637h4.023v16.364c0 1.909.534 3.432 1.602 4.568 1.079 1.136 2.454 1.705 4.125 1.705 1 0 2.017-.256 3.051-.767 1.045-.512 1.92-1.296 2.625-2.353.716-1.057 1.074-2.403 1.074-4.04zm29.936-9.613l-3.614 1.023a6.694 6.694 0 00-1.005-1.756c-.432-.58-1.023-1.057-1.773-1.432s-1.71-.562-2.881-.562c-1.602 0-2.937.369-4.006 1.107-1.056.728-1.585 1.654-1.585 2.779 0 1 .364 1.79 1.091 2.369.727.58 1.864 1.063 3.409 1.449l3.887.955c2.341.568 4.085 1.437 5.233 2.608 1.147 1.159 1.721 2.653 1.721 4.483 0 1.5-.432 2.84-1.295 4.022-.853 1.182-2.046 2.114-3.58 2.796-1.534.682-3.318 1.022-5.352 1.022-2.671 0-4.881-.579-6.631-1.738s-2.858-2.852-3.324-5.08l3.819-.954c.363 1.409 1.051 2.466 2.062 3.17 1.023.705 2.358 1.057 4.006 1.057 1.875 0 3.363-.398 4.466-1.193 1.113-.807 1.67-1.773 1.67-2.898 0-.909-.318-1.67-.954-2.284-.637-.625-1.614-1.091-2.932-1.398l-4.364-1.022c-2.398-.569-4.159-1.449-5.284-2.643-1.114-1.204-1.67-2.71-1.67-4.517 0-1.477.414-2.784 1.244-3.92.841-1.136 1.983-2.028 3.426-2.676 1.455-.648 3.102-.972 4.943-.972 2.591 0 4.625.568 6.102 1.705 1.489 1.136 2.546 2.636 3.171 4.5zm17.919-5.864v3.409h-13.568v-3.409h13.568zm-9.614-6.273h4.023V228.5c0 1.136.165 1.989.494 2.557.341.557.773.932 1.296 1.125a5.192 5.192 0 001.687.273 7.05 7.05 0 001.091-.069l.682-.136.818 3.614a8.2 8.2 0 01-1.142.306c-.488.114-1.108.171-1.858.171a8.093 8.093 0 01-3.341-.733 6.643 6.643 0 01-2.693-2.233c-.704-1-1.057-2.261-1.057-3.784v-26.046z" fill="#0477BF"/></svg>