<svg width="477" height="216" viewBox="0 0 477 216" fill="none" xmlns="http://www.w3.org/2000/svg">
<path d="M160 64L80 28L0 72L80 108L160 64Z" fill="#0477BF"/>
<path d="M180 36L100 0L20 44L100 80L180 36Z" fill="#3DE0F2"/>
<path d="M0 140V72L60 98.7214L0 140Z" fill="#0661A5"/>
<path d="M259.95 62.4545L258.068 73.8182H224.403L226.286 62.4545H259.95ZM224.865 117L234.631 58.5128C235.27 54.5592 236.572 51.2803 238.537 48.6761C240.526 46.072 242.976 44.1188 245.888 42.8168C248.823 41.5147 251.996 40.8636 255.405 40.8636C257.725 40.8636 259.82 41.0412 261.69 41.3963C263.584 41.7514 264.957 42.071 265.81 42.3551L261.3 53.7188C260.732 53.5294 260.033 53.3518 259.205 53.1861C258.376 53.0204 257.5 52.9375 256.577 52.9375C254.375 52.9375 252.753 53.4583 251.712 54.5C250.694 55.518 250.007 56.9503 249.652 58.7969L239.957 117H224.865ZM282.828 118.065C277.265 118.065 272.66 116.882 269.015 114.514C265.369 112.123 262.8 108.809 261.309 104.571C259.841 100.31 259.569 95.3499 260.492 89.6918C261.391 84.1046 263.262 79.2159 266.103 75.0256C268.944 70.8352 272.554 67.58 276.934 65.2599C281.313 62.9162 286.249 61.7443 291.742 61.7443C297.282 61.7443 301.874 62.9399 305.52 65.331C309.166 67.6984 311.735 71.0128 313.226 75.2741C314.718 79.5355 315.002 84.4953 314.078 90.1534C313.155 95.7169 311.261 100.594 308.397 104.784C305.532 108.974 301.922 112.241 297.566 114.585C293.21 116.905 288.297 118.065 282.828 118.065ZM284.32 106.347C286.877 106.347 289.138 105.625 291.103 104.18C293.091 102.713 294.737 100.724 296.039 98.2145C297.364 95.6813 298.288 92.8168 298.809 89.6207C299.329 86.4721 299.365 83.6785 298.915 81.2401C298.465 78.7779 297.518 76.8366 296.074 75.4162C294.654 73.9957 292.701 73.2855 290.215 73.2855C287.658 73.2855 285.385 74.0194 283.397 75.4872C281.408 76.9313 279.763 78.92 278.461 81.4531C277.158 83.9863 276.247 86.8627 275.726 90.0824C275.229 93.2074 275.194 96.0009 275.62 98.4631C276.046 100.902 276.981 102.831 278.425 104.251C279.869 105.648 281.834 106.347 284.32 106.347ZM323.684 137.455C321.743 137.455 319.967 137.301 318.358 136.993C316.748 136.709 315.422 136.342 314.38 135.892L319.707 124.599C321.388 125.144 322.915 125.428 324.288 125.452C325.685 125.475 326.963 125.12 328.123 124.386C329.283 123.652 330.349 122.445 331.319 120.764L332.669 118.456L322.441 62.4545H337.782L342.399 102.582H342.967L361.042 62.4545H377.626L346.412 122.895C344.873 125.854 343.05 128.423 340.943 130.601C338.859 132.779 336.386 134.46 333.521 135.643C330.68 136.851 327.401 137.455 323.684 137.455ZM399.235 118.065C393.648 118.065 389.019 116.929 385.35 114.656C381.68 112.36 379.1 109.116 377.608 104.926C376.141 100.712 375.892 95.7287 376.863 89.9759C377.81 84.3651 379.715 79.4408 382.58 75.2031C385.468 70.9654 389.09 67.6629 393.446 65.2955C397.802 62.928 402.656 61.7443 408.006 61.7443C411.605 61.7443 414.86 62.3243 417.772 63.4844C420.707 64.6207 423.146 66.349 425.087 68.669C427.028 70.9654 428.354 73.8419 429.064 77.2983C429.798 80.7547 429.786 84.803 429.029 89.4432L428.354 93.598H382.331L383.787 84.223H415.605C415.961 82.045 415.819 80.1155 415.179 78.4347C414.54 76.7538 413.475 75.4399 411.983 74.4929C410.492 73.5223 408.657 73.0369 406.479 73.0369C404.254 73.0369 402.17 73.5814 400.229 74.6705C398.288 75.7595 396.654 77.1918 395.328 78.9673C394.026 80.7192 393.186 82.625 392.807 84.6847L391.138 93.9886C390.665 96.8532 390.759 99.2325 391.422 101.126C392.109 103.02 393.292 104.441 394.973 105.388C396.654 106.311 398.785 106.773 401.365 106.773C403.046 106.773 404.621 106.536 406.088 106.062C407.58 105.589 408.906 104.891 410.066 103.967C411.226 103.02 412.173 101.848 412.907 100.452L426.721 101.375C425.442 104.737 423.501 107.672 420.897 110.182C418.292 112.668 415.156 114.609 411.486 116.006C407.84 117.379 403.757 118.065 399.235 118.065ZM434.382 117L443.473 62.4545H458.139L456.541 71.9716H457.109C458.672 68.5862 460.767 66.0294 463.395 64.3011C466.046 62.5492 468.899 61.6733 471.953 61.6733C472.711 61.6733 473.504 61.7206 474.332 61.8153C475.185 61.8864 475.942 62.0047 476.605 62.1705L474.332 75.6293C473.67 75.3925 472.723 75.2031 471.491 75.0611C470.284 74.8954 469.136 74.8125 468.047 74.8125C465.845 74.8125 463.797 75.2978 461.903 76.2685C460.009 77.2154 458.411 78.5412 457.109 80.2457C455.831 81.9503 454.991 83.9152 454.588 86.1406L449.51 117H434.382Z" fill="#0477BF"/>
<path d="M4.22727 206V171.091H8.45455V186.636H27.0682V171.091H31.2955V206H27.0682V190.386H8.45455V206H4.22727ZM41.804 215.818C41.1222 215.818 40.5142 215.761 39.9801 215.648C39.446 215.545 39.0767 215.443 38.8722 215.341L39.8949 211.795C40.8722 212.045 41.7358 212.136 42.4858 212.068C43.2358 212 43.9006 211.665 44.4801 211.062C45.071 210.472 45.6108 209.511 46.0994 208.182L46.8494 206.136L37.1676 179.818H41.5312L48.7585 200.682H49.0312L56.2585 179.818H60.6222L49.5085 209.818C49.0085 211.17 48.3892 212.29 47.6506 213.176C46.9119 214.074 46.054 214.739 45.0767 215.17C44.1108 215.602 43.0199 215.818 41.804 215.818ZM66.4773 206V171.091H70.5V183.977H70.8409C71.1364 183.523 71.5455 182.943 72.0682 182.239C72.6023 181.523 73.3636 180.886 74.3523 180.33C75.3523 179.761 76.7045 179.477 78.4091 179.477C80.6136 179.477 82.5568 180.028 84.2386 181.131C85.9205 182.233 87.233 183.795 88.1761 185.818C89.1193 187.841 89.5909 190.227 89.5909 192.977C89.5909 195.75 89.1193 198.153 88.1761 200.188C87.233 202.21 85.9261 203.778 84.2557 204.892C82.5852 205.994 80.6591 206.545 78.4773 206.545C76.7955 206.545 75.4489 206.267 74.4375 205.71C73.4261 205.142 72.6477 204.5 72.1023 203.784C71.5568 203.057 71.1364 202.455 70.8409 201.977H70.3636V206H66.4773ZM70.4318 192.909C70.4318 194.886 70.7216 196.631 71.3011 198.142C71.8807 199.642 72.7273 200.818 73.8409 201.67C74.9545 202.511 76.3182 202.932 77.9318 202.932C79.6136 202.932 81.017 202.489 82.142 201.602C83.2784 200.705 84.1307 199.5 84.6989 197.989C85.2784 196.466 85.5682 194.773 85.5682 192.909C85.5682 191.068 85.2841 189.409 84.7159 187.932C84.1591 186.443 83.3125 185.267 82.1761 184.403C81.0511 183.528 79.6364 183.091 77.9318 183.091C76.2955 183.091 74.9205 183.506 73.8068 184.335C72.6932 185.153 71.8523 186.301 71.2841 187.778C70.7159 189.244 70.4318 190.955 70.4318 192.909ZM95.7443 206V179.818H99.6307V183.773H99.9034C100.381 182.477 101.244 181.426 102.494 180.619C103.744 179.812 105.153 179.409 106.722 179.409C107.017 179.409 107.386 179.415 107.83 179.426C108.273 179.437 108.608 179.455 108.835 179.477V183.568C108.699 183.534 108.386 183.483 107.898 183.415C107.42 183.335 106.915 183.295 106.381 183.295C105.108 183.295 103.972 183.562 102.972 184.097C101.983 184.619 101.199 185.347 100.619 186.278C100.051 187.199 99.767 188.25 99.767 189.432V206H95.7443ZM113.604 206V179.818H117.626V206H113.604ZM115.649 175.455C114.865 175.455 114.189 175.188 113.621 174.653C113.064 174.119 112.786 173.477 112.786 172.727C112.786 171.977 113.064 171.335 113.621 170.801C114.189 170.267 114.865 170 115.649 170C116.433 170 117.104 170.267 117.661 170.801C118.229 171.335 118.513 171.977 118.513 172.727C118.513 173.477 118.229 174.119 117.661 174.653C117.104 175.188 116.433 175.455 115.649 175.455ZM134.881 206.545C132.699 206.545 130.773 205.994 129.102 204.892C127.432 203.778 126.125 202.21 125.182 200.188C124.239 198.153 123.767 195.75 123.767 192.977C123.767 190.227 124.239 187.841 125.182 185.818C126.125 183.795 127.438 182.233 129.119 181.131C130.801 180.028 132.744 179.477 134.949 179.477C136.653 179.477 138 179.761 138.989 180.33C139.989 180.886 140.75 181.523 141.273 182.239C141.807 182.943 142.222 183.523 142.517 183.977H142.858V171.091H146.881V206H142.994V201.977H142.517C142.222 202.455 141.801 203.057 141.256 203.784C140.71 204.5 139.932 205.142 138.92 205.71C137.909 206.267 136.563 206.545 134.881 206.545ZM135.426 202.932C137.04 202.932 138.403 202.511 139.517 201.67C140.631 200.818 141.477 199.642 142.057 198.142C142.636 196.631 142.926 194.886 142.926 192.909C142.926 190.955 142.642 189.244 142.074 187.778C141.506 186.301 140.665 185.153 139.551 184.335C138.438 183.506 137.063 183.091 135.426 183.091C133.722 183.091 132.301 183.528 131.165 184.403C130.04 185.267 129.193 186.443 128.625 187.932C128.068 189.409 127.79 191.068 127.79 192.909C127.79 194.773 128.074 196.466 128.642 197.989C129.222 199.5 130.074 200.705 131.199 201.602C132.335 202.489 133.744 202.932 135.426 202.932ZM196.943 182H192.716C192.466 180.784 192.028 179.716 191.403 178.795C190.79 177.875 190.04 177.102 189.153 176.477C188.278 175.841 187.307 175.364 186.239 175.045C185.17 174.727 184.057 174.568 182.898 174.568C180.784 174.568 178.869 175.102 177.153 176.17C175.449 177.239 174.091 178.812 173.08 180.892C172.08 182.972 171.58 185.523 171.58 188.545C171.58 191.568 172.08 194.119 173.08 196.199C174.091 198.278 175.449 199.852 177.153 200.92C178.869 201.989 180.784 202.523 182.898 202.523C184.057 202.523 185.17 202.364 186.239 202.045C187.307 201.727 188.278 201.256 189.153 200.631C190.04 199.994 190.79 199.216 191.403 198.295C192.028 197.364 192.466 196.295 192.716 195.091H196.943C196.625 196.875 196.045 198.472 195.205 199.881C194.364 201.29 193.318 202.489 192.068 203.477C190.818 204.455 189.415 205.199 187.858 205.71C186.313 206.222 184.659 206.477 182.898 206.477C179.92 206.477 177.273 205.75 174.955 204.295C172.636 202.841 170.813 200.773 169.483 198.091C168.153 195.409 167.489 192.227 167.489 188.545C167.489 184.864 168.153 181.682 169.483 179C170.813 176.318 172.636 174.25 174.955 172.795C177.273 171.341 179.92 170.614 182.898 170.614C184.659 170.614 186.313 170.869 187.858 171.381C189.415 171.892 190.818 172.642 192.068 173.631C193.318 174.608 194.364 175.801 195.205 177.21C196.045 178.608 196.625 180.205 196.943 182ZM210.933 206.614C209.274 206.614 207.768 206.301 206.416 205.676C205.064 205.04 203.99 204.125 203.195 202.932C202.399 201.727 202.001 200.273 202.001 198.568C202.001 197.068 202.297 195.852 202.888 194.92C203.479 193.977 204.268 193.239 205.257 192.705C206.246 192.17 207.337 191.773 208.53 191.511C209.734 191.239 210.945 191.023 212.161 190.864C213.751 190.659 215.041 190.506 216.03 190.403C217.03 190.29 217.757 190.102 218.212 189.841C218.678 189.58 218.911 189.125 218.911 188.477V188.341C218.911 186.659 218.45 185.352 217.53 184.42C216.621 183.489 215.24 183.023 213.388 183.023C211.467 183.023 209.962 183.443 208.871 184.284C207.78 185.125 207.013 186.023 206.57 186.977L202.751 185.614C203.433 184.023 204.342 182.784 205.479 181.898C206.626 181 207.876 180.375 209.229 180.023C210.592 179.659 211.933 179.477 213.251 179.477C214.092 179.477 215.058 179.58 216.149 179.784C217.251 179.977 218.314 180.381 219.337 180.994C220.371 181.608 221.229 182.534 221.911 183.773C222.592 185.011 222.933 186.67 222.933 188.75V206H218.911V202.455H218.706C218.433 203.023 217.979 203.631 217.342 204.278C216.706 204.926 215.859 205.477 214.803 205.932C213.746 206.386 212.456 206.614 210.933 206.614ZM211.547 203C213.138 203 214.479 202.688 215.57 202.062C216.672 201.438 217.501 200.631 218.058 199.642C218.626 198.653 218.911 197.614 218.911 196.523V192.841C218.74 193.045 218.365 193.233 217.786 193.403C217.217 193.562 216.558 193.705 215.808 193.83C215.07 193.943 214.348 194.045 213.643 194.136C212.95 194.216 212.388 194.284 211.956 194.341C210.911 194.477 209.933 194.699 209.024 195.006C208.126 195.301 207.399 195.75 206.842 196.352C206.297 196.943 206.024 197.75 206.024 198.773C206.024 200.17 206.541 201.227 207.575 201.943C208.621 202.648 209.945 203 211.547 203ZM240.912 206.545C238.457 206.545 236.344 205.966 234.571 204.807C232.798 203.648 231.435 202.051 230.48 200.017C229.526 197.983 229.048 195.659 229.048 193.045C229.048 190.386 229.537 188.04 230.514 186.006C231.503 183.96 232.878 182.364 234.639 181.216C236.412 180.057 238.48 179.477 240.844 179.477C242.685 179.477 244.344 179.818 245.821 180.5C247.298 181.182 248.509 182.136 249.452 183.364C250.395 184.591 250.98 186.023 251.207 187.659H247.185C246.878 186.466 246.196 185.409 245.139 184.489C244.094 183.557 242.685 183.091 240.912 183.091C239.344 183.091 237.969 183.5 236.787 184.318C235.616 185.125 234.702 186.267 234.043 187.744C233.395 189.21 233.071 190.932 233.071 192.909C233.071 194.932 233.389 196.693 234.026 198.193C234.673 199.693 235.582 200.858 236.753 201.688C237.935 202.517 239.321 202.932 240.912 202.932C241.957 202.932 242.906 202.75 243.759 202.386C244.611 202.023 245.332 201.5 245.923 200.818C246.514 200.136 246.935 199.318 247.185 198.364H251.207C250.98 199.909 250.418 201.301 249.52 202.54C248.634 203.767 247.457 204.744 245.991 205.472C244.537 206.188 242.844 206.545 240.912 206.545ZM261.111 190.25V206H257.088V171.091H261.111V183.909H261.452C262.065 182.557 262.986 181.483 264.213 180.688C265.452 179.881 267.099 179.477 269.156 179.477C270.94 179.477 272.503 179.835 273.844 180.551C275.185 181.256 276.224 182.341 276.963 183.807C277.713 185.261 278.088 187.114 278.088 189.364V206H274.065V189.636C274.065 187.557 273.526 185.949 272.446 184.812C271.378 183.665 269.895 183.091 267.997 183.091C266.679 183.091 265.497 183.369 264.452 183.926C263.418 184.483 262.599 185.295 261.997 186.364C261.406 187.432 261.111 188.727 261.111 190.25ZM296.425 206.545C293.902 206.545 291.726 205.989 289.896 204.875C288.078 203.75 286.675 202.182 285.686 200.17C284.709 198.148 284.22 195.795 284.22 193.114C284.22 190.432 284.709 188.068 285.686 186.023C286.675 183.966 288.05 182.364 289.811 181.216C291.584 180.057 293.652 179.477 296.016 179.477C297.379 179.477 298.726 179.705 300.055 180.159C301.385 180.614 302.595 181.352 303.686 182.375C304.777 183.386 305.646 184.727 306.294 186.398C306.942 188.068 307.266 190.125 307.266 192.568V194.273H287.084V190.795H303.175C303.175 189.318 302.879 188 302.288 186.841C301.709 185.682 300.879 184.767 299.8 184.097C298.732 183.426 297.47 183.091 296.016 183.091C294.413 183.091 293.027 183.489 291.857 184.284C290.697 185.068 289.805 186.091 289.18 187.352C288.555 188.614 288.243 189.966 288.243 191.409V193.727C288.243 195.705 288.584 197.381 289.266 198.756C289.959 200.119 290.919 201.159 292.146 201.875C293.374 202.58 294.8 202.932 296.425 202.932C297.482 202.932 298.436 202.784 299.288 202.489C300.152 202.182 300.896 201.727 301.521 201.125C302.146 200.511 302.629 199.75 302.97 198.841L306.857 199.932C306.447 201.25 305.76 202.409 304.794 203.409C303.828 204.398 302.635 205.17 301.214 205.727C299.794 206.273 298.197 206.545 296.425 206.545ZM326.885 206V179.818H330.908V206H326.885ZM328.93 175.455C328.146 175.455 327.47 175.188 326.902 174.653C326.345 174.119 326.067 173.477 326.067 172.727C326.067 171.977 326.345 171.335 326.902 170.801C327.47 170.267 328.146 170 328.93 170C329.714 170 330.385 170.267 330.942 170.801C331.51 171.335 331.794 171.977 331.794 172.727C331.794 173.477 331.51 174.119 330.942 174.653C330.385 175.188 329.714 175.455 328.93 175.455ZM342.298 190.25V206H338.276V179.818H342.162V183.909H342.503C343.116 182.58 344.048 181.511 345.298 180.705C346.548 179.886 348.162 179.477 350.139 179.477C351.912 179.477 353.463 179.841 354.793 180.568C356.122 181.284 357.156 182.375 357.895 183.841C358.634 185.295 359.003 187.136 359.003 189.364V206H354.98V189.636C354.98 187.58 354.446 185.977 353.378 184.83C352.31 183.67 350.844 183.091 348.98 183.091C347.696 183.091 346.548 183.369 345.537 183.926C344.537 184.483 343.747 185.295 343.168 186.364C342.588 187.432 342.298 188.727 342.298 190.25ZM380.399 206V171.091H392.195C394.922 171.091 397.161 171.557 398.911 172.489C400.661 173.409 401.956 174.676 402.797 176.29C403.638 177.903 404.058 179.739 404.058 181.795C404.058 183.852 403.638 185.676 402.797 187.267C401.956 188.858 400.666 190.108 398.928 191.017C397.189 191.915 394.967 192.364 392.263 192.364H382.717V188.545H392.126C393.99 188.545 395.49 188.273 396.626 187.727C397.774 187.182 398.604 186.409 399.115 185.409C399.638 184.398 399.899 183.193 399.899 181.795C399.899 180.398 399.638 179.176 399.115 178.131C398.592 177.085 397.757 176.278 396.609 175.71C395.462 175.131 393.945 174.841 392.058 174.841H384.626V206H380.399ZM396.831 190.318L405.422 206H400.513L392.058 190.318H396.831ZM427.057 195.295V179.818H431.08V206H427.057V201.568H426.784C426.17 202.898 425.216 204.028 423.92 204.96C422.625 205.881 420.989 206.341 419.011 206.341C417.375 206.341 415.92 205.983 414.648 205.267C413.375 204.54 412.375 203.449 411.648 201.994C410.92 200.528 410.557 198.682 410.557 196.455V179.818H414.58V196.182C414.58 198.091 415.114 199.614 416.182 200.75C417.261 201.886 418.636 202.455 420.307 202.455C421.307 202.455 422.324 202.199 423.358 201.688C424.403 201.176 425.278 200.392 425.983 199.335C426.699 198.278 427.057 196.932 427.057 195.295ZM456.993 185.682L453.379 186.705C453.152 186.102 452.817 185.517 452.374 184.949C451.942 184.369 451.351 183.892 450.601 183.517C449.851 183.142 448.891 182.955 447.72 182.955C446.118 182.955 444.783 183.324 443.714 184.062C442.658 184.79 442.129 185.716 442.129 186.841C442.129 187.841 442.493 188.631 443.22 189.21C443.947 189.79 445.084 190.273 446.629 190.659L450.516 191.614C452.857 192.182 454.601 193.051 455.749 194.222C456.896 195.381 457.47 196.875 457.47 198.705C457.47 200.205 457.038 201.545 456.175 202.727C455.322 203.909 454.129 204.841 452.595 205.523C451.061 206.205 449.277 206.545 447.243 206.545C444.572 206.545 442.362 205.966 440.612 204.807C438.862 203.648 437.754 201.955 437.288 199.727L441.107 198.773C441.47 200.182 442.158 201.239 443.169 201.943C444.192 202.648 445.527 203 447.175 203C449.05 203 450.538 202.602 451.641 201.807C452.754 201 453.311 200.034 453.311 198.909C453.311 198 452.993 197.239 452.357 196.625C451.72 196 450.743 195.534 449.425 195.227L445.061 194.205C442.663 193.636 440.902 192.756 439.777 191.562C438.663 190.358 438.107 188.852 438.107 187.045C438.107 185.568 438.521 184.261 439.351 183.125C440.192 181.989 441.334 181.097 442.777 180.449C444.232 179.801 445.879 179.477 447.72 179.477C450.311 179.477 452.345 180.045 453.822 181.182C455.311 182.318 456.368 183.818 456.993 185.682ZM474.912 179.818V183.227H461.344V179.818H474.912ZM465.298 173.545H469.321V198.5C469.321 199.636 469.486 200.489 469.815 201.057C470.156 201.614 470.588 201.989 471.111 202.182C471.645 202.364 472.207 202.455 472.798 202.455C473.241 202.455 473.605 202.432 473.889 202.386C474.173 202.33 474.401 202.284 474.571 202.25L475.389 205.864C475.116 205.966 474.736 206.068 474.247 206.17C473.759 206.284 473.139 206.341 472.389 206.341C471.253 206.341 470.139 206.097 469.048 205.608C467.969 205.119 467.071 204.375 466.355 203.375C465.651 202.375 465.298 201.114 465.298 199.591V173.545Z" fill="#0477BF"/>
</svg>
