<svg width="477" height="140" viewBox="0 0 477 140" fill="none" xmlns="http://www.w3.org/2000/svg">
<path d="M160 64L80 28L0 72L80 108L160 64Z" fill="#0477BF"/>
<path d="M180 36L100 0L20 44L100 80L180 36Z" fill="#3DE0F2"/>
<path d="M0 140V72L60 98.7214L0 140Z" fill="#0661A5"/>
<path d="M259.95 62.4545L258.068 73.8182H224.403L226.286 62.4545H259.95ZM224.865 117L234.631 58.5128C235.27 54.5592 236.572 51.2803 238.537 48.6761C240.526 46.072 242.976 44.1188 245.888 42.8168C248.823 41.5147 251.996 40.8636 255.405 40.8636C257.725 40.8636 259.82 41.0412 261.69 41.3963C263.584 41.7514 264.957 42.071 265.81 42.3551L261.3 53.7188C260.732 53.5294 260.033 53.3518 259.205 53.1861C258.376 53.0204 257.5 52.9375 256.577 52.9375C254.375 52.9375 252.753 53.4583 251.712 54.5C250.694 55.518 250.007 56.9503 249.652 58.7969L239.957 117H224.865ZM282.828 118.065C277.265 118.065 272.66 116.882 269.015 114.514C265.369 112.123 262.8 108.809 261.309 104.571C259.841 100.31 259.569 95.3499 260.492 89.6918C261.391 84.1046 263.262 79.2159 266.103 75.0256C268.944 70.8352 272.554 67.58 276.934 65.2599C281.313 62.9162 286.249 61.7443 291.742 61.7443C297.282 61.7443 301.874 62.9399 305.52 65.331C309.166 67.6984 311.735 71.0128 313.226 75.2741C314.718 79.5355 315.002 84.4953 314.078 90.1534C313.155 95.7169 311.261 100.594 308.397 104.784C305.532 108.974 301.922 112.241 297.566 114.585C293.21 116.905 288.297 118.065 282.828 118.065ZM284.32 106.347C286.877 106.347 289.138 105.625 291.103 104.18C293.091 102.713 294.737 100.724 296.039 98.2145C297.364 95.6813 298.288 92.8168 298.809 89.6207C299.329 86.4721 299.365 83.6785 298.915 81.2401C298.465 78.7779 297.518 76.8366 296.074 75.4162C294.654 73.9957 292.701 73.2855 290.215 73.2855C287.658 73.2855 285.385 74.0194 283.397 75.4872C281.408 76.9313 279.763 78.92 278.461 81.4531C277.158 83.9863 276.247 86.8627 275.726 90.0824C275.229 93.2074 275.194 96.0009 275.62 98.4631C276.046 100.902 276.981 102.831 278.425 104.251C279.869 105.648 281.834 106.347 284.32 106.347ZM323.684 137.455C321.743 137.455 319.967 137.301 318.358 136.993C316.748 136.709 315.422 136.342 314.38 135.892L319.707 124.599C321.388 125.144 322.915 125.428 324.288 125.452C325.685 125.475 326.963 125.12 328.123 124.386C329.283 123.652 330.349 122.445 331.319 120.764L332.669 118.456L322.441 62.4545H337.782L342.399 102.582H342.967L361.042 62.4545H377.626L346.412 122.895C344.873 125.854 343.05 128.423 340.943 130.601C338.859 132.779 336.386 134.46 333.521 135.643C330.68 136.851 327.401 137.455 323.684 137.455ZM399.235 118.065C393.648 118.065 389.019 116.929 385.35 114.656C381.68 112.36 379.1 109.116 377.608 104.926C376.141 100.712 375.892 95.7287 376.863 89.9759C377.81 84.3651 379.715 79.4408 382.58 75.2031C385.468 70.9654 389.09 67.6629 393.446 65.2955C397.802 62.928 402.656 61.7443 408.006 61.7443C411.605 61.7443 414.86 62.3243 417.772 63.4844C420.707 64.6207 423.146 66.349 425.087 68.669C427.028 70.9654 428.354 73.8419 429.064 77.2983C429.798 80.7547 429.786 84.803 429.029 89.4432L428.354 93.598H382.331L383.787 84.223H415.605C415.961 82.045 415.819 80.1155 415.179 78.4347C414.54 76.7538 413.475 75.4399 411.983 74.4929C410.492 73.5223 408.657 73.0369 406.479 73.0369C404.254 73.0369 402.17 73.5814 400.229 74.6705C398.288 75.7595 396.654 77.1918 395.328 78.9673C394.026 80.7192 393.186 82.625 392.807 84.6847L391.138 93.9886C390.665 96.8532 390.759 99.2325 391.422 101.126C392.109 103.02 393.292 104.441 394.973 105.388C396.654 106.311 398.785 106.773 401.365 106.773C403.046 106.773 404.621 106.536 406.088 106.062C407.58 105.589 408.906 104.891 410.066 103.967C411.226 103.02 412.173 101.848 412.907 100.452L426.721 101.375C425.442 104.737 423.501 107.672 420.897 110.182C418.292 112.668 415.156 114.609 411.486 116.006C407.84 117.379 403.757 118.065 399.235 118.065ZM434.382 117L443.473 62.4545H458.139L456.541 71.9716H457.109C458.672 68.5862 460.767 66.0294 463.395 64.3011C466.046 62.5492 468.899 61.6733 471.953 61.6733C472.711 61.6733 473.504 61.7206 474.332 61.8153C475.185 61.8864 475.942 62.0047 476.605 62.1705L474.332 75.6293C473.67 75.3925 472.723 75.2031 471.491 75.0611C470.284 74.8954 469.136 74.8125 468.047 74.8125C465.845 74.8125 463.797 75.2978 461.903 76.2685C460.009 77.2154 458.411 78.5412 457.109 80.2457C455.831 81.9503 454.991 83.9152 454.588 86.1406L449.51 117H434.382Z" fill="#0477BF"/>
</svg>
