<svg width="484" height="267" viewBox="0 0 484 267" fill="none" xmlns="http://www.w3.org/2000/svg">
<path d="M266.95 73.4545L265.068 84.8182H231.403L233.286 73.4545H266.95ZM231.865 128L241.631 69.5128C242.27 65.5592 243.572 62.2803 245.537 59.6761C247.526 57.072 249.976 55.1188 252.888 53.8168C255.823 52.5147 258.996 51.8636 262.405 51.8636C264.725 51.8636 266.82 52.0412 268.69 52.3963C270.584 52.7514 271.957 53.071 272.81 53.3551L268.3 64.7188C267.732 64.5294 267.033 64.3518 266.205 64.1861C265.376 64.0204 264.5 63.9375 263.577 63.9375C261.375 63.9375 259.753 64.4583 258.712 65.5C257.694 66.518 257.007 67.9503 256.652 69.7969L246.957 128H231.865ZM289.828 129.065C284.265 129.065 279.66 127.882 276.015 125.514C272.369 123.123 269.8 119.809 268.309 115.571C266.841 111.31 266.569 106.35 267.492 100.692C268.391 95.1046 270.262 90.2159 273.103 86.0256C275.944 81.8352 279.554 78.58 283.934 76.2599C288.313 73.9162 293.249 72.7443 298.742 72.7443C304.282 72.7443 308.874 73.9399 312.52 76.331C316.166 78.6984 318.735 82.0128 320.226 86.2741C321.718 90.5355 322.002 95.4953 321.078 101.153C320.155 106.717 318.261 111.594 315.397 115.784C312.532 119.974 308.922 123.241 304.566 125.585C300.21 127.905 295.297 129.065 289.828 129.065ZM291.32 117.347C293.877 117.347 296.138 116.625 298.103 115.18C300.091 113.713 301.737 111.724 303.039 109.214C304.364 106.681 305.288 103.817 305.809 100.621C306.329 97.4721 306.365 94.6785 305.915 92.2401C305.465 89.7779 304.518 87.8366 303.074 86.4162C301.654 84.9957 299.701 84.2855 297.215 84.2855C294.658 84.2855 292.385 85.0194 290.397 86.4872C288.408 87.9313 286.763 89.92 285.461 92.4531C284.158 94.9863 283.247 97.8627 282.726 101.082C282.229 104.207 282.194 107.001 282.62 109.463C283.046 111.902 283.981 113.831 285.425 115.251C286.869 116.648 288.834 117.347 291.32 117.347ZM330.684 148.455C328.743 148.455 326.967 148.301 325.358 147.993C323.748 147.709 322.422 147.342 321.38 146.892L326.707 135.599C328.388 136.144 329.915 136.428 331.288 136.452C332.685 136.475 333.963 136.12 335.123 135.386C336.283 134.652 337.349 133.445 338.319 131.764L339.669 129.456L329.441 73.4545H344.782L349.399 113.582H349.967L368.042 73.4545H384.626L353.412 133.895C351.873 136.854 350.05 139.423 347.943 141.601C345.859 143.779 343.386 145.46 340.521 146.643C337.68 147.851 334.401 148.455 330.684 148.455ZM406.235 129.065C400.648 129.065 396.019 127.929 392.35 125.656C388.68 123.36 386.1 120.116 384.608 115.926C383.141 111.712 382.892 106.729 383.863 100.976C384.81 95.3651 386.715 90.4408 389.58 86.2031C392.468 81.9654 396.09 78.6629 400.446 76.2955C404.802 73.928 409.656 72.7443 415.006 72.7443C418.605 72.7443 421.86 73.3243 424.772 74.4844C427.707 75.6207 430.146 77.349 432.087 79.669C434.028 81.9654 435.354 84.8419 436.064 88.2983C436.798 91.7547 436.786 95.803 436.029 100.443L435.354 104.598H389.331L390.787 95.223H422.605C422.961 93.045 422.819 91.1155 422.179 89.4347C421.54 87.7538 420.475 86.4399 418.983 85.4929C417.492 84.5223 415.657 84.0369 413.479 84.0369C411.254 84.0369 409.17 84.5814 407.229 85.6705C405.288 86.7595 403.654 88.1918 402.328 89.9673C401.026 91.7192 400.186 93.625 399.807 95.6847L398.138 104.989C397.665 107.853 397.759 110.232 398.422 112.126C399.109 114.02 400.292 115.441 401.973 116.388C403.654 117.311 405.785 117.773 408.365 117.773C410.046 117.773 411.621 117.536 413.088 117.062C414.58 116.589 415.906 115.891 417.066 114.967C418.226 114.02 419.173 112.848 419.907 111.452L433.721 112.375C432.442 115.737 430.501 118.672 427.897 121.182C425.292 123.668 422.156 125.609 418.486 127.006C414.84 128.379 410.757 129.065 406.235 129.065ZM441.382 128L450.473 73.4545H465.139L463.541 82.9716H464.109C465.672 79.5862 467.767 77.0294 470.395 75.3011C473.046 73.5492 475.899 72.6733 478.953 72.6733C479.711 72.6733 480.504 72.7206 481.332 72.8153C482.185 72.8864 482.942 73.0047 483.605 73.1705L481.332 86.6293C480.67 86.3925 479.723 86.2031 478.491 86.0611C477.284 85.8954 476.136 85.8125 475.047 85.8125C472.845 85.8125 470.797 86.2978 468.903 87.2685C467.009 88.2154 465.411 89.5412 464.109 91.2457C462.831 92.9503 461.991 94.9152 461.588 97.1406L456.51 128H441.382Z" fill="#0477BF"/>
<path d="M11.2273 257V222.091H15.4545V237.636H34.0682V222.091H38.2955V257H34.0682V241.386H15.4545V257H11.2273ZM48.804 266.818C48.1222 266.818 47.5142 266.761 46.9801 266.648C46.446 266.545 46.0767 266.443 45.8722 266.341L46.8949 262.795C47.8722 263.045 48.7358 263.136 49.4858 263.068C50.2358 263 50.9006 262.665 51.4801 262.062C52.071 261.472 52.6108 260.511 53.0994 259.182L53.8494 257.136L44.1676 230.818H48.5312L55.7585 251.682H56.0312L63.2585 230.818H67.6222L56.5085 260.818C56.0085 262.17 55.3892 263.29 54.6506 264.176C53.9119 265.074 53.054 265.739 52.0767 266.17C51.1108 266.602 50.0199 266.818 48.804 266.818ZM73.4773 257V222.091H77.5V234.977H77.8409C78.1364 234.523 78.5455 233.943 79.0682 233.239C79.6023 232.523 80.3636 231.886 81.3523 231.33C82.3523 230.761 83.7045 230.477 85.4091 230.477C87.6136 230.477 89.5568 231.028 91.2386 232.131C92.9205 233.233 94.233 234.795 95.1761 236.818C96.1193 238.841 96.5909 241.227 96.5909 243.977C96.5909 246.75 96.1193 249.153 95.1761 251.188C94.233 253.21 92.9261 254.778 91.2557 255.892C89.5852 256.994 87.6591 257.545 85.4773 257.545C83.7955 257.545 82.4489 257.267 81.4375 256.71C80.4261 256.142 79.6477 255.5 79.1023 254.784C78.5568 254.057 78.1364 253.455 77.8409 252.977H77.3636V257H73.4773ZM77.4318 243.909C77.4318 245.886 77.7216 247.631 78.3011 249.142C78.8807 250.642 79.7273 251.818 80.8409 252.67C81.9545 253.511 83.3182 253.932 84.9318 253.932C86.6136 253.932 88.017 253.489 89.142 252.602C90.2784 251.705 91.1307 250.5 91.6989 248.989C92.2784 247.466 92.5682 245.773 92.5682 243.909C92.5682 242.068 92.2841 240.409 91.7159 238.932C91.1591 237.443 90.3125 236.267 89.1761 235.403C88.0511 234.528 86.6364 234.091 84.9318 234.091C83.2955 234.091 81.9205 234.506 80.8068 235.335C79.6932 236.153 78.8523 237.301 78.2841 238.778C77.7159 240.244 77.4318 241.955 77.4318 243.909ZM102.744 257V230.818H106.631V234.773H106.903C107.381 233.477 108.244 232.426 109.494 231.619C110.744 230.812 112.153 230.409 113.722 230.409C114.017 230.409 114.386 230.415 114.83 230.426C115.273 230.437 115.608 230.455 115.835 230.477V234.568C115.699 234.534 115.386 234.483 114.898 234.415C114.42 234.335 113.915 234.295 113.381 234.295C112.108 234.295 110.972 234.562 109.972 235.097C108.983 235.619 108.199 236.347 107.619 237.278C107.051 238.199 106.767 239.25 106.767 240.432V257H102.744ZM120.604 257V230.818H124.626V257H120.604ZM122.649 226.455C121.865 226.455 121.189 226.188 120.621 225.653C120.064 225.119 119.786 224.477 119.786 223.727C119.786 222.977 120.064 222.335 120.621 221.801C121.189 221.267 121.865 221 122.649 221C123.433 221 124.104 221.267 124.661 221.801C125.229 222.335 125.513 222.977 125.513 223.727C125.513 224.477 125.229 225.119 124.661 225.653C124.104 226.188 123.433 226.455 122.649 226.455ZM141.881 257.545C139.699 257.545 137.773 256.994 136.102 255.892C134.432 254.778 133.125 253.21 132.182 251.188C131.239 249.153 130.767 246.75 130.767 243.977C130.767 241.227 131.239 238.841 132.182 236.818C133.125 234.795 134.438 233.233 136.119 232.131C137.801 231.028 139.744 230.477 141.949 230.477C143.653 230.477 145 230.761 145.989 231.33C146.989 231.886 147.75 232.523 148.273 233.239C148.807 233.943 149.222 234.523 149.517 234.977H149.858V222.091H153.881V257H149.994V252.977H149.517C149.222 253.455 148.801 254.057 148.256 254.784C147.71 255.5 146.932 256.142 145.92 256.71C144.909 257.267 143.563 257.545 141.881 257.545ZM142.426 253.932C144.04 253.932 145.403 253.511 146.517 252.67C147.631 251.818 148.477 250.642 149.057 249.142C149.636 247.631 149.926 245.886 149.926 243.909C149.926 241.955 149.642 240.244 149.074 238.778C148.506 237.301 147.665 236.153 146.551 235.335C145.438 234.506 144.063 234.091 142.426 234.091C140.722 234.091 139.301 234.528 138.165 235.403C137.04 236.267 136.193 237.443 135.625 238.932C135.068 240.409 134.79 242.068 134.79 243.909C134.79 245.773 135.074 247.466 135.642 248.989C136.222 250.5 137.074 251.705 138.199 252.602C139.335 253.489 140.744 253.932 142.426 253.932ZM203.943 233H199.716C199.466 231.784 199.028 230.716 198.403 229.795C197.79 228.875 197.04 228.102 196.153 227.477C195.278 226.841 194.307 226.364 193.239 226.045C192.17 225.727 191.057 225.568 189.898 225.568C187.784 225.568 185.869 226.102 184.153 227.17C182.449 228.239 181.091 229.812 180.08 231.892C179.08 233.972 178.58 236.523 178.58 239.545C178.58 242.568 179.08 245.119 180.08 247.199C181.091 249.278 182.449 250.852 184.153 251.92C185.869 252.989 187.784 253.523 189.898 253.523C191.057 253.523 192.17 253.364 193.239 253.045C194.307 252.727 195.278 252.256 196.153 251.631C197.04 250.994 197.79 250.216 198.403 249.295C199.028 248.364 199.466 247.295 199.716 246.091H203.943C203.625 247.875 203.045 249.472 202.205 250.881C201.364 252.29 200.318 253.489 199.068 254.477C197.818 255.455 196.415 256.199 194.858 256.71C193.313 257.222 191.659 257.477 189.898 257.477C186.92 257.477 184.273 256.75 181.955 255.295C179.636 253.841 177.813 251.773 176.483 249.091C175.153 246.409 174.489 243.227 174.489 239.545C174.489 235.864 175.153 232.682 176.483 230C177.813 227.318 179.636 225.25 181.955 223.795C184.273 222.341 186.92 221.614 189.898 221.614C191.659 221.614 193.313 221.869 194.858 222.381C196.415 222.892 197.818 223.642 199.068 224.631C200.318 225.608 201.364 226.801 202.205 228.21C203.045 229.608 203.625 231.205 203.943 233ZM217.933 257.614C216.274 257.614 214.768 257.301 213.416 256.676C212.064 256.04 210.99 255.125 210.195 253.932C209.399 252.727 209.001 251.273 209.001 249.568C209.001 248.068 209.297 246.852 209.888 245.92C210.479 244.977 211.268 244.239 212.257 243.705C213.246 243.17 214.337 242.773 215.53 242.511C216.734 242.239 217.945 242.023 219.161 241.864C220.751 241.659 222.041 241.506 223.03 241.403C224.03 241.29 224.757 241.102 225.212 240.841C225.678 240.58 225.911 240.125 225.911 239.477V239.341C225.911 237.659 225.45 236.352 224.53 235.42C223.621 234.489 222.24 234.023 220.388 234.023C218.467 234.023 216.962 234.443 215.871 235.284C214.78 236.125 214.013 237.023 213.57 237.977L209.751 236.614C210.433 235.023 211.342 233.784 212.479 232.898C213.626 232 214.876 231.375 216.229 231.023C217.592 230.659 218.933 230.477 220.251 230.477C221.092 230.477 222.058 230.58 223.149 230.784C224.251 230.977 225.314 231.381 226.337 231.994C227.371 232.608 228.229 233.534 228.911 234.773C229.592 236.011 229.933 237.67 229.933 239.75V257H225.911V253.455H225.706C225.433 254.023 224.979 254.631 224.342 255.278C223.706 255.926 222.859 256.477 221.803 256.932C220.746 257.386 219.456 257.614 217.933 257.614ZM218.547 254C220.138 254 221.479 253.688 222.57 253.062C223.672 252.438 224.501 251.631 225.058 250.642C225.626 249.653 225.911 248.614 225.911 247.523V243.841C225.74 244.045 225.365 244.233 224.786 244.403C224.217 244.562 223.558 244.705 222.808 244.83C222.07 244.943 221.348 245.045 220.643 245.136C219.95 245.216 219.388 245.284 218.956 245.341C217.911 245.477 216.933 245.699 216.024 246.006C215.126 246.301 214.399 246.75 213.842 247.352C213.297 247.943 213.024 248.75 213.024 249.773C213.024 251.17 213.541 252.227 214.575 252.943C215.621 253.648 216.945 254 218.547 254ZM247.912 257.545C245.457 257.545 243.344 256.966 241.571 255.807C239.798 254.648 238.435 253.051 237.48 251.017C236.526 248.983 236.048 246.659 236.048 244.045C236.048 241.386 236.537 239.04 237.514 237.006C238.503 234.96 239.878 233.364 241.639 232.216C243.412 231.057 245.48 230.477 247.844 230.477C249.685 230.477 251.344 230.818 252.821 231.5C254.298 232.182 255.509 233.136 256.452 234.364C257.395 235.591 257.98 237.023 258.207 238.659H254.185C253.878 237.466 253.196 236.409 252.139 235.489C251.094 234.557 249.685 234.091 247.912 234.091C246.344 234.091 244.969 234.5 243.787 235.318C242.616 236.125 241.702 237.267 241.043 238.744C240.395 240.21 240.071 241.932 240.071 243.909C240.071 245.932 240.389 247.693 241.026 249.193C241.673 250.693 242.582 251.858 243.753 252.688C244.935 253.517 246.321 253.932 247.912 253.932C248.957 253.932 249.906 253.75 250.759 253.386C251.611 253.023 252.332 252.5 252.923 251.818C253.514 251.136 253.935 250.318 254.185 249.364H258.207C257.98 250.909 257.418 252.301 256.52 253.54C255.634 254.767 254.457 255.744 252.991 256.472C251.537 257.188 249.844 257.545 247.912 257.545ZM268.111 241.25V257H264.088V222.091H268.111V234.909H268.452C269.065 233.557 269.986 232.483 271.213 231.688C272.452 230.881 274.099 230.477 276.156 230.477C277.94 230.477 279.503 230.835 280.844 231.551C282.185 232.256 283.224 233.341 283.963 234.807C284.713 236.261 285.088 238.114 285.088 240.364V257H281.065V240.636C281.065 238.557 280.526 236.949 279.446 235.812C278.378 234.665 276.895 234.091 274.997 234.091C273.679 234.091 272.497 234.369 271.452 234.926C270.418 235.483 269.599 236.295 268.997 237.364C268.406 238.432 268.111 239.727 268.111 241.25ZM303.425 257.545C300.902 257.545 298.726 256.989 296.896 255.875C295.078 254.75 293.675 253.182 292.686 251.17C291.709 249.148 291.22 246.795 291.22 244.114C291.22 241.432 291.709 239.068 292.686 237.023C293.675 234.966 295.05 233.364 296.811 232.216C298.584 231.057 300.652 230.477 303.016 230.477C304.379 230.477 305.726 230.705 307.055 231.159C308.385 231.614 309.595 232.352 310.686 233.375C311.777 234.386 312.646 235.727 313.294 237.398C313.942 239.068 314.266 241.125 314.266 243.568V245.273H294.084V241.795H310.175C310.175 240.318 309.879 239 309.288 237.841C308.709 236.682 307.879 235.767 306.8 235.097C305.732 234.426 304.47 234.091 303.016 234.091C301.413 234.091 300.027 234.489 298.857 235.284C297.697 236.068 296.805 237.091 296.18 238.352C295.555 239.614 295.243 240.966 295.243 242.409V244.727C295.243 246.705 295.584 248.381 296.266 249.756C296.959 251.119 297.919 252.159 299.146 252.875C300.374 253.58 301.8 253.932 303.425 253.932C304.482 253.932 305.436 253.784 306.288 253.489C307.152 253.182 307.896 252.727 308.521 252.125C309.146 251.511 309.629 250.75 309.97 249.841L313.857 250.932C313.447 252.25 312.76 253.409 311.794 254.409C310.828 255.398 309.635 256.17 308.214 256.727C306.794 257.273 305.197 257.545 303.425 257.545ZM333.885 257V230.818H337.908V257H333.885ZM335.93 226.455C335.146 226.455 334.47 226.188 333.902 225.653C333.345 225.119 333.067 224.477 333.067 223.727C333.067 222.977 333.345 222.335 333.902 221.801C334.47 221.267 335.146 221 335.93 221C336.714 221 337.385 221.267 337.942 221.801C338.51 222.335 338.794 222.977 338.794 223.727C338.794 224.477 338.51 225.119 337.942 225.653C337.385 226.188 336.714 226.455 335.93 226.455ZM349.298 241.25V257H345.276V230.818H349.162V234.909H349.503C350.116 233.58 351.048 232.511 352.298 231.705C353.548 230.886 355.162 230.477 357.139 230.477C358.912 230.477 360.463 230.841 361.793 231.568C363.122 232.284 364.156 233.375 364.895 234.841C365.634 236.295 366.003 238.136 366.003 240.364V257H361.98V240.636C361.98 238.58 361.446 236.977 360.378 235.83C359.31 234.67 357.844 234.091 355.98 234.091C354.696 234.091 353.548 234.369 352.537 234.926C351.537 235.483 350.747 236.295 350.168 237.364C349.588 238.432 349.298 239.727 349.298 241.25ZM387.399 257V222.091H399.195C401.922 222.091 404.161 222.557 405.911 223.489C407.661 224.409 408.956 225.676 409.797 227.29C410.638 228.903 411.058 230.739 411.058 232.795C411.058 234.852 410.638 236.676 409.797 238.267C408.956 239.858 407.666 241.108 405.928 242.017C404.189 242.915 401.967 243.364 399.263 243.364H389.717V239.545H399.126C400.99 239.545 402.49 239.273 403.626 238.727C404.774 238.182 405.604 237.409 406.115 236.409C406.638 235.398 406.899 234.193 406.899 232.795C406.899 231.398 406.638 230.176 406.115 229.131C405.592 228.085 404.757 227.278 403.609 226.71C402.462 226.131 400.945 225.841 399.058 225.841H391.626V257H387.399ZM403.831 241.318L412.422 257H407.513L399.058 241.318H403.831ZM434.057 246.295V230.818H438.08V257H434.057V252.568H433.784C433.17 253.898 432.216 255.028 430.92 255.96C429.625 256.881 427.989 257.341 426.011 257.341C424.375 257.341 422.92 256.983 421.648 256.267C420.375 255.54 419.375 254.449 418.648 252.994C417.92 251.528 417.557 249.682 417.557 247.455V230.818H421.58V247.182C421.58 249.091 422.114 250.614 423.182 251.75C424.261 252.886 425.636 253.455 427.307 253.455C428.307 253.455 429.324 253.199 430.358 252.688C431.403 252.176 432.278 251.392 432.983 250.335C433.699 249.278 434.057 247.932 434.057 246.295ZM463.993 236.682L460.379 237.705C460.152 237.102 459.817 236.517 459.374 235.949C458.942 235.369 458.351 234.892 457.601 234.517C456.851 234.142 455.891 233.955 454.72 233.955C453.118 233.955 451.783 234.324 450.714 235.062C449.658 235.79 449.129 236.716 449.129 237.841C449.129 238.841 449.493 239.631 450.22 240.21C450.947 240.79 452.084 241.273 453.629 241.659L457.516 242.614C459.857 243.182 461.601 244.051 462.749 245.222C463.896 246.381 464.47 247.875 464.47 249.705C464.47 251.205 464.038 252.545 463.175 253.727C462.322 254.909 461.129 255.841 459.595 256.523C458.061 257.205 456.277 257.545 454.243 257.545C451.572 257.545 449.362 256.966 447.612 255.807C445.862 254.648 444.754 252.955 444.288 250.727L448.107 249.773C448.47 251.182 449.158 252.239 450.169 252.943C451.192 253.648 452.527 254 454.175 254C456.05 254 457.538 253.602 458.641 252.807C459.754 252 460.311 251.034 460.311 249.909C460.311 249 459.993 248.239 459.357 247.625C458.72 247 457.743 246.534 456.425 246.227L452.061 245.205C449.663 244.636 447.902 243.756 446.777 242.562C445.663 241.358 445.107 239.852 445.107 238.045C445.107 236.568 445.521 235.261 446.351 234.125C447.192 232.989 448.334 232.097 449.777 231.449C451.232 230.801 452.879 230.477 454.72 230.477C457.311 230.477 459.345 231.045 460.822 232.182C462.311 233.318 463.368 234.818 463.993 236.682ZM481.912 230.818V234.227H468.344V230.818H481.912ZM472.298 224.545H476.321V249.5C476.321 250.636 476.486 251.489 476.815 252.057C477.156 252.614 477.588 252.989 478.111 253.182C478.645 253.364 479.207 253.455 479.798 253.455C480.241 253.455 480.605 253.432 480.889 253.386C481.173 253.33 481.401 253.284 481.571 253.25L482.389 256.864C482.116 256.966 481.736 257.068 481.247 257.17C480.759 257.284 480.139 257.341 479.389 257.341C478.253 257.341 477.139 257.097 476.048 256.608C474.969 256.119 474.071 255.375 473.355 254.375C472.651 253.375 472.298 252.114 472.298 250.591V224.545Z" fill="#0477BF"/>
<path d="M87 0L173.603 50V150L87 200L0.397461 150V50L87 0Z" fill="#E6FCFF"/>
<path opacity="0.8" fill-rule="evenodd" clip-rule="evenodd" d="M43.5 74.8853L0.397461 50V99.7705L43.5 74.8853ZM0.397461 100.229L43.3013 125L0.397461 149.771V100.229Z" fill="#0B4D7F"/>
<path opacity="0.8" fill-rule="evenodd" clip-rule="evenodd" d="M86.6025 150L173.205 100L86.6025 50L0 100L86.6025 150Z" fill="#0477BF"/>
<path opacity="0.8" fill-rule="evenodd" clip-rule="evenodd" d="M87 100L173.603 50L87 0L0.397461 50L87 100Z" fill="#3DE0F2"/>
</svg>
