<svg width="400" height="328" fill="none" xmlns="http://www.w3.org/2000/svg"><path d="M198.301 110.623c-49.681 0-94.82 5.98-128.238 15.726v83.248c33.418 9.746 78.557 15.726 128.238 15.726 56.863 0 107.769-7.833 141.964-20.18v-74.338c-34.195-12.348-85.101-20.182-141.964-20.182z" fill="#8F1E1C"/><path d="M342.486 185.971c-1.455-4.029-1.747-9.127-.513-14.043 2.208-8.801 8.462-13.679 13.97-10.896 1.365.691 2.556 1.788 3.542 3.181.091 0 .181 0 .27.006 0 0 16.815 20.069 1.251 43.837-.338 1.349-28.886 34.66-35.495 35.72-4.325.694 5.621-34.01 16.975-57.805zM66.608 182.033c2-3.639 2.702-8.611 1.592-13.764-1.988-9.227-9.025-15.536-15.717-14.09-1.66.358-3.142 1.161-4.403 2.304a5.988 5.988 0 00-.32-.058s-21.245 15.854-4.55 43.051c.304 1.414 31.648 41.129 39.37 43.746 5.054 1.713-4.245-34.964-15.972-61.189z" fill="#8F1E1C"/><path d="M36.787 184.317l.002.006c.07.055.135.104-.002-.006z" fill="#E33A25"/><path d="M374.83 155.914c-.332-1.158-.662-2.315-1.004-3.462l11.58-16.798c1.182-1.709 1.423-3.929.653-5.878-.77-1.939-2.449-3.329-4.438-3.669l-19.584-3.328a167.642 167.642 0 00-2.351-4.591l8.227-18.858a6.274 6.274 0 00-.454-5.898c-1.118-1.752-3.016-2.775-5.038-2.696l-19.874.723a165.465 165.465 0 00-3.141-3.976l4.567-20.213c.462-2.053-.121-4.201-1.549-5.693-1.419-1.485-3.483-2.1-5.444-1.618l-19.358 4.764a170.85 170.85 0 00-3.817-3.277l.697-20.752c.075-2.1-.903-4.096-2.583-5.262a5.601 5.601 0 00-5.645-.478l-18.059 8.596a199.697 199.697 0 00-4.394-2.463l-3.192-20.45c-.323-2.071-1.655-3.83-3.519-4.634a5.596 5.596 0 00-5.621.683l-16.1 12.095a165.822 165.822 0 00-4.791-1.516l-6.939-19.392c-.706-1.976-2.333-3.428-4.317-3.836-1.977-.405-4.012.28-5.383 1.815l-13.553 15.18a173.005 173.005 0 00-4.922-.503L205.02 2.877C203.96 1.088 202.088 0 200.07 0c-2.013 0-3.889 1.088-4.941 2.877l-10.467 17.652a172.31 172.31 0 00-4.928.503l-13.553-15.18c-1.372-1.534-3.415-2.22-5.385-1.815-1.983.413-3.613 1.86-4.315 3.836l-6.946 19.392c-1.607.483-3.201.993-4.79 1.516L128.65 16.686c-1.636-1.234-3.766-1.495-5.629-.683-1.857.803-3.194 2.563-3.515 4.634l-3.194 20.45a193.83 193.83 0 00-4.398 2.463l-18.057-8.596a5.591 5.591 0 00-5.644.478c-1.677 1.166-2.658 3.162-2.581 5.262l.692 20.752a192.973 192.973 0 00-3.816 3.277L63.154 59.96c-1.967-.478-4.028.133-5.45 1.618-1.433 1.492-2.013 3.64-1.553 5.693l4.559 20.213a192.799 192.799 0 00-3.13 3.976l-19.874-.723c-2.006-.059-3.92.944-5.04 2.696-1.123 1.743-1.293 3.976-.458 5.898l8.233 18.858c-.8 1.514-1.594 3.041-2.358 4.591L18.5 126.107c-1.99.335-3.667 1.725-4.44 3.669a6.323 6.323 0 00.655 5.878l11.583 16.798c-.09.296-.172.595-.26.893l-6.365 6.769 17.113 24.203s164.238 75.855 316.585 1.284c17.402-3.127 21.458-29.687 21.458-29.687z" fill="#E43A25"/><path d="M229.59 83.856s18.176-19.926 36.352 0c0 0 14.282 26.57 0 39.854 0 0-23.369 18.598-36.352 0 0 0-15.579-14.614 0-39.854z" fill="#030404"/><path d="M248.633 93.248c0 7.759-4.568 14.049-10.202 14.049-5.632 0-10.2-6.29-10.2-14.05 0-7.758 4.568-14.05 10.2-14.05 5.634 0 10.202 6.292 10.202 14.05z" fill="#fff"/><path d="M148.467 78.415s31.178-13.822 39.688 17.029c0 0 8.914 35.958-25.604 37.987 0 0-44.016-8.488-14.084-55.016z" fill="#030404"/><path d="M162.126 93.757c0 8.001-4.71 14.491-10.521 14.491-5.809 0-10.521-6.49-10.521-14.49 0-8.004 4.712-14.491 10.521-14.491 5.811 0 10.521 6.487 10.521 14.49z" fill="#fff"/><path d="M42.122 188.531c4.139-4.71 14.195-10.414 13.425-17.49-1.379-12.669-11.872-21.917-23.438-20.655a19.43 19.43 0 00-7.897 2.659c-.175-.04-.35-.08-.524-.111 0 0-39.113 19.224-16.82 57.688.21 1.941 44.48 58.825 56.912 63.157 8.137 2.835-7.515-48.612-21.658-85.248zM359.896 186.814c-4.791-4.043-17.423-7.716-17.709-14.828-.512-12.734 8.496-23.437 20.121-23.905a19.42 19.42 0 018.204 1.457c.166-.065.333-.13.501-.187 0 0 41.527 13.207 25.173 54.554.079 1.951-35.278 64.777-46.932 70.906-7.627 4.011 2.079-49.667 10.642-87.997z" fill="#E43A25"/><path d="M205 128l86.603 50v100L205 328l-86.603-50V178L205 128z" fill="#E6FCFF"/><path opacity=".8" fill-rule="evenodd" clip-rule="evenodd" d="M161.5 202.885L118.397 178v49.771l43.103-24.886zm-43.103 25.344L161.301 253l-42.904 24.771v-49.542z" fill="#0B4D7F"/><path opacity=".8" fill-rule="evenodd" clip-rule="evenodd" d="M204.603 278l86.602-50-86.602-50L118 228l86.603 50z" fill="#0477BF"/><path opacity=".8" fill-rule="evenodd" clip-rule="evenodd" d="M205 228l86.603-50L205 128l-86.603 50L205 228z" fill="#3DE0F2"/><path d="M350.434 171s.521 51.883-50.261 63.46l-10.588-21.299s36.797 3.564 39.628-42.161h21.221z" fill="#E43A25"/><path d="M313.75 223.917c-7.643-18.494-32.306-25.837-55.086-16.4-20.051 8.306-31.945 26.842-29.298 43.777 15.832-.247 32.814-1.274 49.344-3.673 0 0-9.752 15.782-24.102 29.556 9.65 2.493 20.903 1.801 31.733-2.685 22.78-9.437 35.052-32.08 27.409-50.575zM57 171s-.522 51.883 50.261 63.46l10.588-21.299S81.052 216.725 78.221 171h-21.22z" fill="#E43A25"/><path d="M137.62 246.739s20.835 2.757 49.319 3.46c2.494-17.954-11.089-36.954-32.762-44.305-23.943-8.12-48.683 1.055-55.26 20.494-6.577 19.439 7.502 41.78 31.445 49.9 10.613 3.6 21.382 3.798 30.658 1.212-13.931-13.795-23.4-30.761-23.4-30.761z" fill="#E43A25"/></svg>